<svg width="78" height="32" viewBox="0 0 78 32" fill="none" xmlns="http://www.w3.org/2000/svg">
<g filter="url(#filter0_iiinn_132_21)">
<g clip-path="url(#clip0_132_21)">
<rect x="-2.49219" y="31.0688" width="33.5631" height="33.5631" rx="7.25689" transform="rotate(-90 -2.49219 31.0688)" fill="#00774D"/>
<g filter="url(#filter1_iiinn_132_21)">
<path d="M1.35787 13.7818C1.38256 13.7117 1.72176 13.244 1.78651 13.1739C2.8679 12.0021 3.94136 10.7476 5.02367 9.58129L7.63669 6.81678C10.0803 4.14678 12.5541 1.50383 15.0576 -1.11162C15.9868 -2.08994 16.8783 -3.09557 17.8385 -4.0544C18.5033 -4.7183 19.4993 -5.29628 20.4695 -4.86674C22.0048 -4.18702 21.4266 -2.62759 20.9601 -1.46113L20.4389 -0.162657C20.1087 0.658467 19.8133 1.48422 19.4677 2.30154C19.4472 2.49099 19.2213 2.92611 19.1452 3.13032L18.0293 6.06845C17.9111 6.37601 17.7667 6.80762 17.6231 7.10511C17.1741 8.03552 16.996 9.41728 18.3794 9.59427C18.8969 9.66049 19.6035 9.61363 20.1621 9.61511L24.2451 9.61594C25.6265 9.61901 26.7965 9.5346 27.7311 10.7688C28.1352 11.3023 28.2373 11.8415 28.1529 12.4968C28.0561 13.1793 27.415 14.0308 26.9612 14.5616C26.9594 14.563 26.9575 14.5643 26.9556 14.5657C25.6376 16.0382 24.3021 17.4952 22.9494 18.9367C22.8104 19.0858 22.6563 19.2242 22.5171 19.3742L17.5587 24.7254C17.1446 25.1663 16.701 25.5906 16.2847 26.0425L12.6053 30.0105C12.0221 30.6508 11.4422 31.2938 10.839 31.9189C10.227 32.5533 9.6163 33.37 8.64738 33.4276C8.20295 33.454 7.72488 33.3506 7.38649 33.0499C7.07972 32.7716 6.89899 32.3836 6.88484 31.9727C6.84169 30.9422 7.37856 29.9089 7.75949 28.9693L8.81327 26.3424C9.22284 25.3377 9.59726 24.3108 10.0377 23.316C10.1333 23.0999 10.2125 22.8684 10.3124 22.6546C10.3519 22.4958 10.4873 22.2328 10.5534 22.0631C10.8086 21.4174 11.1074 20.7908 11.2794 20.1169C11.4512 19.4516 10.9967 18.7233 10.3446 18.5161C9.83774 18.3549 9.02489 18.3555 8.48631 18.3536C7.65164 18.3495 6.81694 18.3518 5.98228 18.3604C5.00981 18.3781 3.83402 18.436 2.8731 18.2766C2.516 18.2022 2.20437 18.0294 1.90975 17.8321C0.478905 16.8738 0.391415 15.1049 1.35787 13.7818Z" fill="url(#paint0_linear_132_21)"/>
<path d="M1.35787 13.7818C1.38256 13.7117 1.72176 13.244 1.78651 13.1739C2.8679 12.0021 3.94136 10.7476 5.02367 9.58129L7.63669 6.81678C10.0803 4.14678 12.5541 1.50383 15.0576 -1.11162C15.9868 -2.08994 16.8783 -3.09557 17.8385 -4.0544C18.5033 -4.7183 19.4993 -5.29628 20.4695 -4.86674C22.0048 -4.18702 21.4266 -2.62759 20.9601 -1.46113L20.4389 -0.162657C20.1087 0.658467 19.8133 1.48422 19.4677 2.30154C19.4472 2.49099 19.2213 2.92611 19.1452 3.13032L18.0293 6.06845C17.9111 6.37601 17.7667 6.80762 17.6231 7.10511C17.1741 8.03552 16.996 9.41728 18.3794 9.59427C18.8969 9.66049 19.6035 9.61363 20.1621 9.61511L24.2451 9.61594C25.6265 9.61901 26.7965 9.5346 27.7311 10.7688C28.1352 11.3023 28.2373 11.8415 28.1529 12.4968C28.0561 13.1793 27.415 14.0308 26.9612 14.5616C26.9594 14.563 26.9575 14.5643 26.9556 14.5657C25.6376 16.0382 24.3021 17.4952 22.9494 18.9367C22.8104 19.0858 22.6563 19.2242 22.5171 19.3742L17.5587 24.7254C17.1446 25.1663 16.701 25.5906 16.2847 26.0425L12.6053 30.0105C12.0221 30.6508 11.4422 31.2938 10.839 31.9189C10.227 32.5533 9.6163 33.37 8.64738 33.4276C8.20295 33.454 7.72488 33.3506 7.38649 33.0499C7.07972 32.7716 6.89899 32.3836 6.88484 31.9727C6.84169 30.9422 7.37856 29.9089 7.75949 28.9693L8.81327 26.3424C9.22284 25.3377 9.59726 24.3108 10.0377 23.316C10.1333 23.0999 10.2125 22.8684 10.3124 22.6546C10.3519 22.4958 10.4873 22.2328 10.5534 22.0631C10.8086 21.4174 11.1074 20.7908 11.2794 20.1169C11.4512 19.4516 10.9967 18.7233 10.3446 18.5161C9.83774 18.3549 9.02489 18.3555 8.48631 18.3536C7.65164 18.3495 6.81694 18.3518 5.98228 18.3604C5.00981 18.3781 3.83402 18.436 2.8731 18.2766C2.516 18.2022 2.20437 18.0294 1.90975 17.8321C0.478905 16.8738 0.391415 15.1049 1.35787 13.7818Z" fill="url(#paint1_radial_132_21)"/>
</g>
</g>
</g>
<path d="M73.1734 28.8211C72.3044 28.8211 71.5894 28.6377 71.0285 28.2711C70.4711 27.9007 70.0806 27.3874 69.857 26.7311C69.637 26.0748 69.5985 25.3195 69.7415 24.4651C69.8808 23.5998 70.1723 22.8408 70.616 22.1882C71.0596 21.5319 71.6224 21.0204 72.3044 20.6537C72.9901 20.2834 73.7601 20.0982 74.6144 20.0982C75.3514 20.0982 75.9747 20.232 76.4844 20.4997C76.994 20.7674 77.368 21.1432 77.6063 21.6272C77.8042 22.029 77.8934 22.4889 77.8739 23.007C77.8669 23.1929 77.7082 23.3322 77.5222 23.3322H76.013C75.8091 23.3322 75.6496 23.1644 75.6136 22.9637C75.5681 22.7101 75.4697 22.4937 75.3184 22.3147C75.0984 22.0543 74.7757 21.9242 74.3504 21.9242C73.9837 21.9242 73.6464 22.0232 73.3384 22.2212C73.0341 22.4155 72.7756 22.6997 72.5629 23.0737C72.3539 23.4477 72.2073 23.9005 72.1229 24.4321C72.0349 24.9711 72.0331 25.4294 72.1174 25.8071C72.2018 26.1848 72.3631 26.4726 72.6014 26.6706C72.8398 26.8686 73.1404 26.9676 73.5034 26.9676C73.7747 26.9676 74.0259 26.9126 74.2569 26.8026C74.4916 26.6926 74.6969 26.5331 74.8729 26.3241C74.9973 26.1738 75.1015 26.0024 75.1856 25.8099C75.2495 25.6638 75.388 25.5596 75.5475 25.5596H77.0292C77.2653 25.5596 77.4407 25.78 77.3646 26.0035C77.2054 26.4711 76.9744 26.8914 76.6714 27.2646C76.279 27.7522 75.7859 28.1336 75.1919 28.4086C74.5979 28.6836 73.9251 28.8211 73.1734 28.8211Z" fill="url(#paint2_radial_132_21)"/>
<path d="M73.1734 28.8211C72.3044 28.8211 71.5894 28.6377 71.0285 28.2711C70.4711 27.9007 70.0806 27.3874 69.857 26.7311C69.637 26.0748 69.5985 25.3195 69.7415 24.4651C69.8808 23.5998 70.1723 22.8408 70.616 22.1882C71.0596 21.5319 71.6224 21.0204 72.3044 20.6537C72.9901 20.2834 73.7601 20.0982 74.6144 20.0982C75.3514 20.0982 75.9747 20.232 76.4844 20.4997C76.994 20.7674 77.368 21.1432 77.6063 21.6272C77.8042 22.029 77.8934 22.4889 77.8739 23.007C77.8669 23.1929 77.7082 23.3322 77.5222 23.3322H76.013C75.8091 23.3322 75.6496 23.1644 75.6136 22.9637C75.5681 22.7101 75.4697 22.4937 75.3184 22.3147C75.0984 22.0543 74.7757 21.9242 74.3504 21.9242C73.9837 21.9242 73.6464 22.0232 73.3384 22.2212C73.0341 22.4155 72.7756 22.6997 72.5629 23.0737C72.3539 23.4477 72.2073 23.9005 72.1229 24.4321C72.0349 24.9711 72.0331 25.4294 72.1174 25.8071C72.2018 26.1848 72.3631 26.4726 72.6014 26.6706C72.8398 26.8686 73.1404 26.9676 73.5034 26.9676C73.7747 26.9676 74.0259 26.9126 74.2569 26.8026C74.4916 26.6926 74.6969 26.5331 74.8729 26.3241C74.9973 26.1738 75.1015 26.0024 75.1856 25.8099C75.2495 25.6638 75.388 25.5596 75.5475 25.5596H77.0292C77.2653 25.5596 77.4407 25.78 77.3646 26.0035C77.2054 26.4711 76.9744 26.8914 76.6714 27.2646C76.279 27.7522 75.7859 28.1336 75.1919 28.4086C74.5979 28.6836 73.9251 28.8211 73.1734 28.8211Z" fill="url(#paint3_radial_132_21)"/>
<path d="M65.9016 28.6561C65.6749 28.6561 65.5024 28.4525 65.5397 28.2288L66.8254 20.5148C66.8549 20.3379 67.0079 20.2082 67.1873 20.2082H68.7863C69.013 20.2082 69.1855 20.4118 69.1482 20.6354L67.8625 28.3495C67.8331 28.5264 67.68 28.6561 67.5006 28.6561H65.9016ZM68.2899 19.1082C67.9416 19.1082 67.6538 18.9927 67.4265 18.7617C67.2028 18.5271 67.1111 18.2484 67.1515 17.9257C67.1918 17.5958 67.3495 17.3171 67.6245 17.0898C67.8994 16.8588 68.2111 16.7433 68.5594 16.7433C68.9078 16.7433 69.1919 16.8588 69.4119 17.0898C69.6319 17.3171 69.7236 17.5958 69.6869 17.9257C69.6502 18.2484 69.4944 18.5271 69.2194 18.7617C68.9481 18.9927 68.6383 19.1082 68.2899 19.1082Z" fill="url(#paint4_radial_132_21)"/>
<path d="M65.9016 28.6561C65.6749 28.6561 65.5024 28.4525 65.5397 28.2288L66.8254 20.5148C66.8549 20.3379 67.0079 20.2082 67.1873 20.2082H68.7863C69.013 20.2082 69.1855 20.4118 69.1482 20.6354L67.8625 28.3495C67.8331 28.5264 67.68 28.6561 67.5006 28.6561H65.9016ZM68.2899 19.1082C67.9416 19.1082 67.6538 18.9927 67.4265 18.7617C67.2028 18.5271 67.1111 18.2484 67.1515 17.9257C67.1918 17.5958 67.3495 17.3171 67.6245 17.0898C67.8994 16.8588 68.2111 16.7433 68.5594 16.7433C68.9078 16.7433 69.1919 16.8588 69.4119 17.0898C69.6319 17.3171 69.7236 17.5958 69.6869 17.9257C69.6502 18.2484 69.4944 18.5271 69.2194 18.7617C68.9481 18.9927 68.6383 19.1082 68.2899 19.1082Z" fill="url(#paint5_radial_132_21)"/>
<path d="M59.2553 32C58.4927 32 57.8565 31.8955 57.3469 31.6865C56.8409 31.4812 56.4559 31.2007 56.1919 30.845C55.9994 30.5821 55.8711 30.2951 55.8069 29.9841C55.768 29.7957 55.9105 29.6267 56.1012 29.6017L57.6556 29.3977C57.8425 29.3732 58.0128 29.4984 58.1039 29.6635C58.1361 29.7218 58.1734 29.7783 58.2158 29.833C58.3332 29.9797 58.5 30.097 58.7163 30.185C58.9363 30.273 59.2205 30.317 59.5688 30.317C60.0785 30.317 60.5221 30.1924 60.8998 29.943C61.2775 29.6974 61.5103 29.2849 61.5983 28.7056L61.8405 27.2259C61.8462 27.1914 61.8195 27.1601 61.7846 27.1601C61.7645 27.1601 61.7461 27.1706 61.7356 27.1877C61.5979 27.4122 61.4128 27.6248 61.1803 27.8256C60.942 28.0346 60.6505 28.2051 60.3058 28.3371C59.9648 28.4691 59.5707 28.5351 59.1233 28.5351C58.4853 28.5351 57.9317 28.3884 57.4624 28.0951C56.9967 27.7981 56.6594 27.3452 56.4504 26.7366C56.2451 26.1243 56.2194 25.3506 56.3734 24.4156C56.5347 23.4587 56.8244 22.6593 57.2424 22.0177C57.6604 21.376 58.1554 20.8957 58.7273 20.5767C59.2993 20.2577 59.8952 20.0982 60.5148 20.0982C60.9878 20.0982 61.3691 20.1789 61.6588 20.3402C61.9521 20.4979 62.1776 20.6959 62.3353 20.9342C62.4832 21.1544 62.5908 21.3714 62.6581 21.5852C62.6659 21.61 62.6886 21.6272 62.7146 21.6272C62.7432 21.6272 62.7676 21.6064 62.7722 21.5782L62.9451 20.5162C62.974 20.3386 63.1274 20.2082 63.3073 20.2082H64.8887C65.1154 20.2082 65.2879 20.4117 65.2507 20.6353L63.9027 28.7386C63.7891 29.4609 63.5159 30.0622 63.0833 30.5425C62.6543 31.0265 62.1098 31.3895 61.4498 31.6315C60.7898 31.8772 60.0583 32 59.2553 32ZM60.1353 26.7751C60.5093 26.7751 60.8448 26.6816 61.1418 26.4946C61.4425 26.3039 61.6936 26.0326 61.8953 25.6806C62.0969 25.325 62.2381 24.8996 62.3188 24.4046C62.3994 23.9096 62.3976 23.4807 62.3133 23.1177C62.2326 22.751 62.0749 22.4668 61.8403 22.2652C61.6093 22.0635 61.305 21.9627 60.9273 21.9627C60.5386 21.9627 60.1976 22.0672 59.9043 22.2762C59.611 22.4815 59.3672 22.7675 59.1728 23.1342C58.9822 23.5008 58.8483 23.9243 58.7713 24.4046C58.6907 24.8923 58.687 25.314 58.7603 25.6696C58.8373 26.0216 58.9895 26.2948 59.2168 26.4891C59.4442 26.6798 59.7503 26.7751 60.1353 26.7751Z" fill="url(#paint6_radial_132_21)"/>
<path d="M59.2553 32C58.4927 32 57.8565 31.8955 57.3469 31.6865C56.8409 31.4812 56.4559 31.2007 56.1919 30.845C55.9994 30.5821 55.8711 30.2951 55.8069 29.9841C55.768 29.7957 55.9105 29.6267 56.1012 29.6017L57.6556 29.3977C57.8425 29.3732 58.0128 29.4984 58.1039 29.6635C58.1361 29.7218 58.1734 29.7783 58.2158 29.833C58.3332 29.9797 58.5 30.097 58.7163 30.185C58.9363 30.273 59.2205 30.317 59.5688 30.317C60.0785 30.317 60.5221 30.1924 60.8998 29.943C61.2775 29.6974 61.5103 29.2849 61.5983 28.7056L61.8405 27.2259C61.8462 27.1914 61.8195 27.1601 61.7846 27.1601C61.7645 27.1601 61.7461 27.1706 61.7356 27.1877C61.5979 27.4122 61.4128 27.6248 61.1803 27.8256C60.942 28.0346 60.6505 28.2051 60.3058 28.3371C59.9648 28.4691 59.5707 28.5351 59.1233 28.5351C58.4853 28.5351 57.9317 28.3884 57.4624 28.0951C56.9967 27.7981 56.6594 27.3452 56.4504 26.7366C56.2451 26.1243 56.2194 25.3506 56.3734 24.4156C56.5347 23.4587 56.8244 22.6593 57.2424 22.0177C57.6604 21.376 58.1554 20.8957 58.7273 20.5767C59.2993 20.2577 59.8952 20.0982 60.5148 20.0982C60.9878 20.0982 61.3691 20.1789 61.6588 20.3402C61.9521 20.4979 62.1776 20.6959 62.3353 20.9342C62.4832 21.1544 62.5908 21.3714 62.6581 21.5852C62.6659 21.61 62.6886 21.6272 62.7146 21.6272C62.7432 21.6272 62.7676 21.6064 62.7722 21.5782L62.9451 20.5162C62.974 20.3386 63.1274 20.2082 63.3073 20.2082H64.8887C65.1154 20.2082 65.2879 20.4117 65.2507 20.6353L63.9027 28.7386C63.7891 29.4609 63.5159 30.0622 63.0833 30.5425C62.6543 31.0265 62.1098 31.3895 61.4498 31.6315C60.7898 31.8772 60.0583 32 59.2553 32ZM60.1353 26.7751C60.5093 26.7751 60.8448 26.6816 61.1418 26.4946C61.4425 26.3039 61.6936 26.0326 61.8953 25.6806C62.0969 25.325 62.2381 24.8996 62.3188 24.4046C62.3994 23.9096 62.3976 23.4807 62.3133 23.1177C62.2326 22.751 62.0749 22.4668 61.8403 22.2652C61.6093 22.0635 61.305 21.9627 60.9273 21.9627C60.5386 21.9627 60.1976 22.0672 59.9043 22.2762C59.611 22.4815 59.3672 22.7675 59.1728 23.1342C58.9822 23.5008 58.8483 23.9243 58.7713 24.4046C58.6907 24.8923 58.687 25.314 58.7603 25.6696C58.8373 26.0216 58.9895 26.2948 59.2168 26.4891C59.4442 26.6798 59.7503 26.7751 60.1353 26.7751Z" fill="url(#paint7_radial_132_21)"/>
<path d="M49.69 28.8156C49.1547 28.8156 48.6909 28.7221 48.2986 28.5351C47.9099 28.3444 47.6239 28.0621 47.4406 27.6881C47.2572 27.3141 47.2114 26.8503 47.3031 26.2966C47.3837 25.8273 47.5359 25.4349 47.7596 25.1196C47.9869 24.8006 48.2637 24.544 48.5901 24.3496C48.9164 24.1553 49.2775 24.0068 49.6735 23.9041C50.0732 23.8015 50.4857 23.7318 50.911 23.6951C51.4023 23.6438 51.802 23.5943 52.11 23.5466C52.4217 23.499 52.6545 23.4312 52.8085 23.3432C52.9575 23.2545 53.0499 23.1246 53.0856 22.9535C53.088 22.942 53.089 22.9303 53.089 22.9185C53.089 22.9083 53.0898 22.898 53.0913 22.8879C53.1421 22.5506 53.0771 22.288 52.8965 22.1002C52.7168 21.9058 52.429 21.8087 52.033 21.8087C51.615 21.8087 51.2593 21.9003 50.966 22.0837C50.7585 22.215 50.5934 22.3717 50.4706 22.5538C50.3831 22.6834 50.24 22.7735 50.0842 22.7607L48.6929 22.6459C48.4507 22.626 48.2942 22.3795 48.4076 22.1645C48.582 21.8338 48.8041 21.5374 49.0741 21.2752C49.4627 20.8975 49.9302 20.6079 50.4765 20.4062C51.0228 20.2009 51.6352 20.0982 52.3135 20.0982C52.7828 20.0982 53.221 20.1532 53.628 20.2632C54.0386 20.3732 54.3925 20.5437 54.6895 20.7747C54.9901 21.0057 55.2064 21.3027 55.3384 21.6657C55.4741 22.025 55.5016 22.4558 55.4209 22.9582L54.5206 28.3496C54.4911 28.5265 54.3381 28.6561 54.1587 28.6561H52.6816C52.4546 28.6561 52.282 28.4519 52.3198 28.228L52.4379 27.5295C52.4419 27.506 52.4237 27.4846 52.3999 27.4846C52.3871 27.4846 52.3752 27.4909 52.368 27.5014C52.1904 27.7585 51.9743 27.9857 51.7195 28.1831C51.4592 28.3811 51.1603 28.5369 50.823 28.6506C50.4857 28.7606 50.108 28.8156 49.69 28.8156ZM50.6305 27.1986C50.9715 27.1986 51.285 27.1308 51.571 26.9951C51.8607 26.8558 52.099 26.6688 52.286 26.4341C52.4767 26.1994 52.5977 25.9336 52.649 25.6366L52.7377 25.0803C52.7586 24.9493 52.6013 24.8329 52.473 24.8666C52.3373 24.9033 52.1888 24.9381 52.0275 24.9711C51.8698 25.0005 51.7103 25.028 51.549 25.0536C51.3877 25.0756 51.2428 25.0976 51.1145 25.1196C50.8322 25.16 50.5792 25.2241 50.3555 25.3121C50.1319 25.4001 49.9504 25.5193 49.811 25.6696C49.6717 25.8163 49.5855 25.9996 49.5525 26.2196C49.5012 26.5386 49.5764 26.7824 49.778 26.9511C49.9834 27.1161 50.2675 27.1986 50.6305 27.1986Z" fill="url(#paint8_radial_132_21)"/>
<path d="M49.69 28.8156C49.1547 28.8156 48.6909 28.7221 48.2986 28.5351C47.9099 28.3444 47.6239 28.0621 47.4406 27.6881C47.2572 27.3141 47.2114 26.8503 47.3031 26.2966C47.3837 25.8273 47.5359 25.4349 47.7596 25.1196C47.9869 24.8006 48.2637 24.544 48.5901 24.3496C48.9164 24.1553 49.2775 24.0068 49.6735 23.9041C50.0732 23.8015 50.4857 23.7318 50.911 23.6951C51.4023 23.6438 51.802 23.5943 52.11 23.5466C52.4217 23.499 52.6545 23.4312 52.8085 23.3432C52.9575 23.2545 53.0499 23.1246 53.0856 22.9535C53.088 22.942 53.089 22.9303 53.089 22.9185C53.089 22.9083 53.0898 22.898 53.0913 22.8879C53.1421 22.5506 53.0771 22.288 52.8965 22.1002C52.7168 21.9058 52.429 21.8087 52.033 21.8087C51.615 21.8087 51.2593 21.9003 50.966 22.0837C50.7585 22.215 50.5934 22.3717 50.4706 22.5538C50.3831 22.6834 50.24 22.7735 50.0842 22.7607L48.6929 22.6459C48.4507 22.626 48.2942 22.3795 48.4076 22.1645C48.582 21.8338 48.8041 21.5374 49.0741 21.2752C49.4627 20.8975 49.9302 20.6079 50.4765 20.4062C51.0228 20.2009 51.6352 20.0982 52.3135 20.0982C52.7828 20.0982 53.221 20.1532 53.628 20.2632C54.0386 20.3732 54.3925 20.5437 54.6895 20.7747C54.9901 21.0057 55.2064 21.3027 55.3384 21.6657C55.4741 22.025 55.5016 22.4558 55.4209 22.9582L54.5206 28.3496C54.4911 28.5265 54.3381 28.6561 54.1587 28.6561H52.6816C52.4546 28.6561 52.282 28.4519 52.3198 28.228L52.4379 27.5295C52.4419 27.506 52.4237 27.4846 52.3999 27.4846C52.3871 27.4846 52.3752 27.4909 52.368 27.5014C52.1904 27.7585 51.9743 27.9857 51.7195 28.1831C51.4592 28.3811 51.1603 28.5369 50.823 28.6506C50.4857 28.7606 50.108 28.8156 49.69 28.8156ZM50.6305 27.1986C50.9715 27.1986 51.285 27.1308 51.571 26.9951C51.8607 26.8558 52.099 26.6688 52.286 26.4341C52.4767 26.1994 52.5977 25.9336 52.649 25.6366L52.7377 25.0803C52.7586 24.9493 52.6013 24.8329 52.473 24.8666C52.3373 24.9033 52.1888 24.9381 52.0275 24.9711C51.8698 25.0005 51.7103 25.028 51.549 25.0536C51.3877 25.0756 51.2428 25.0976 51.1145 25.1196C50.8322 25.16 50.5792 25.2241 50.3555 25.3121C50.1319 25.4001 49.9504 25.5193 49.811 25.6696C49.6717 25.8163 49.5855 25.9996 49.5525 26.2196C49.5012 26.5386 49.5764 26.7824 49.778 26.9511C49.9834 27.1161 50.2675 27.1986 50.6305 27.1986Z" fill="url(#paint9_radial_132_21)"/>
<path d="M35.304 17.6991C35.3334 17.5221 35.4865 17.3923 35.6659 17.3923H38.004C38.173 17.3923 38.3201 17.5077 38.3603 17.6719L40.1272 24.8863C40.1379 24.9297 40.1767 24.9601 40.2213 24.9601C40.2559 24.9601 40.288 24.9416 40.3052 24.9116L44.5219 17.5763C44.5874 17.4625 44.7087 17.3923 44.84 17.3923H47.1318C47.3585 17.3923 47.5309 17.5957 47.4938 17.8193L45.7457 28.3492C45.7163 28.5263 45.5631 28.6561 45.3837 28.6561H43.8178C43.5911 28.6561 43.4187 28.4525 43.4559 28.2289L44.5949 21.39C44.6006 21.3558 44.5742 21.3247 44.5395 21.3247C44.5193 21.3247 44.5006 21.3356 44.4906 21.3532L40.4982 28.4147C40.4331 28.5299 40.311 28.6011 40.1788 28.6011H39.1059C38.9352 28.6011 38.787 28.4833 38.7485 28.317L37.1306 21.3413C37.1246 21.3155 37.1016 21.2972 37.0751 21.2972C37.0473 21.2972 37.0235 21.3173 37.0189 21.3448L35.8462 28.3497C35.8166 28.5265 35.6636 28.6561 35.4843 28.6561H33.9178C33.6911 28.6561 33.5187 28.4526 33.5558 28.2291L35.304 17.6991Z" fill="url(#paint10_radial_132_21)"/>
<path d="M35.304 17.6991C35.3334 17.5221 35.4865 17.3923 35.6659 17.3923H38.004C38.173 17.3923 38.3201 17.5077 38.3603 17.6719L40.1272 24.8863C40.1379 24.9297 40.1767 24.9601 40.2213 24.9601C40.2559 24.9601 40.288 24.9416 40.3052 24.9116L44.5219 17.5763C44.5874 17.4625 44.7087 17.3923 44.84 17.3923H47.1318C47.3585 17.3923 47.5309 17.5957 47.4938 17.8193L45.7457 28.3492C45.7163 28.5263 45.5631 28.6561 45.3837 28.6561H43.8178C43.5911 28.6561 43.4187 28.4525 43.4559 28.2289L44.5949 21.39C44.6006 21.3558 44.5742 21.3247 44.5395 21.3247C44.5193 21.3247 44.5006 21.3356 44.4906 21.3532L40.4982 28.4147C40.4331 28.5299 40.311 28.6011 40.1788 28.6011H39.1059C38.9352 28.6011 38.787 28.4833 38.7485 28.317L37.1306 21.3413C37.1246 21.3155 37.1016 21.2972 37.0751 21.2972C37.0473 21.2972 37.0235 21.3173 37.0189 21.3448L35.8462 28.3497C35.8166 28.5265 35.6636 28.6561 35.4843 28.6561H33.9178C33.6911 28.6561 33.5187 28.4526 33.5558 28.2291L35.304 17.6991Z" fill="url(#paint11_radial_132_21)"/>
<path d="M62.5565 0C62.7832 0 62.9556 0.203426 62.9185 0.426999L61.1704 10.957C61.141 11.134 60.9879 11.2638 60.8084 11.2638H59.2093C58.9827 11.2638 58.8102 11.0604 58.8474 10.8368L60.5955 0.306818C60.6249 0.129794 60.778 0 60.9574 0H62.5565Z" fill="#009B65"/>
<path d="M62.5565 0C62.7832 0 62.9556 0.203426 62.9185 0.426999L61.1704 10.957C61.141 11.134 60.9879 11.2638 60.8084 11.2638H59.2093C58.9827 11.2638 58.8102 11.0604 58.8474 10.8368L60.5955 0.306818C60.6249 0.129794 60.778 0 60.9574 0H62.5565Z" fill="url(#paint12_radial_132_21)"/>
<path d="M52.4891 11.4233C51.9537 11.4233 51.4899 11.3298 51.0976 11.1428C50.7089 10.9521 50.4229 10.6698 50.2396 10.2958C50.0563 9.92182 50.0104 9.458 50.1021 8.90434C50.1828 8.43502 50.3349 8.04269 50.5586 7.72736C50.7859 7.40837 51.0627 7.15171 51.3891 6.95738C51.7154 6.76305 52.0766 6.61455 52.4726 6.51188C52.8722 6.40922 53.2847 6.33955 53.71 6.30289C54.2014 6.25156 54.601 6.20206 54.909 6.15439C55.2207 6.10672 55.4535 6.03889 55.6075 5.95089C55.7565 5.8622 55.8489 5.7323 55.8846 5.56122C55.887 5.54973 55.888 5.538 55.888 5.52626C55.888 5.51604 55.8888 5.50577 55.8904 5.49566C55.9411 5.15834 55.8761 4.89576 55.6955 4.70792C55.5158 4.51359 55.228 4.41642 54.832 4.41642C54.414 4.41642 54.0584 4.50809 53.765 4.69142C53.5576 4.82273 53.3924 4.97943 53.2696 5.16153C53.1822 5.29115 53.0391 5.38129 52.8832 5.36844L51.4919 5.25368C51.2497 5.23371 51.0932 4.98721 51.2066 4.77226C51.381 4.44157 51.6032 4.14513 51.8731 3.88293C52.2617 3.50527 52.7292 3.21561 53.2755 3.01395C53.8219 2.80862 54.4342 2.70595 55.1125 2.70595C55.5818 2.70595 56.02 2.76095 56.427 2.87095C56.8376 2.98095 57.1915 3.15144 57.4885 3.38244C57.7891 3.61344 58.0055 3.91043 58.1375 4.27342C58.2731 4.63275 58.3006 5.06358 58.22 5.5659L57.3197 10.9573C57.2901 11.1342 57.1371 11.2638 56.9578 11.2638H55.4806C55.2536 11.2638 55.081 11.0596 55.1189 10.8357L55.2369 10.1373C55.2409 10.1138 55.2228 10.0923 55.1989 10.0923C55.1861 10.0923 55.1742 10.0986 55.167 10.1091C54.9895 10.3662 54.7733 10.5934 54.5185 10.7908C54.2582 10.9888 53.9594 11.1446 53.622 11.2583C53.2847 11.3683 52.907 11.4233 52.4891 11.4233ZM53.4295 9.80633C53.7705 9.80633 54.084 9.73849 54.37 9.60283C54.6597 9.4635 54.898 9.2765 55.085 9.04184C55.2757 8.80718 55.3967 8.54135 55.448 8.24435L55.5367 7.68808C55.5576 7.55708 55.4003 7.44061 55.272 7.47437C55.1363 7.51103 54.9878 7.54587 54.8265 7.57887C54.6689 7.6082 54.5094 7.6357 54.348 7.66136C54.1867 7.68336 54.0419 7.70536 53.9135 7.72736C53.6312 7.7677 53.3782 7.83186 53.1545 7.91986C52.9309 8.00786 52.7494 8.12702 52.6101 8.27735C52.4707 8.42402 52.3846 8.60735 52.3516 8.82734C52.3002 9.14634 52.3754 9.39017 52.5771 9.55883C52.7824 9.72383 53.0665 9.80633 53.4295 9.80633Z" fill="#009B65"/>
<path d="M52.4891 11.4233C51.9537 11.4233 51.4899 11.3298 51.0976 11.1428C50.7089 10.9521 50.4229 10.6698 50.2396 10.2958C50.0563 9.92182 50.0104 9.458 50.1021 8.90434C50.1828 8.43502 50.3349 8.04269 50.5586 7.72736C50.7859 7.40837 51.0627 7.15171 51.3891 6.95738C51.7154 6.76305 52.0766 6.61455 52.4726 6.51188C52.8722 6.40922 53.2847 6.33955 53.71 6.30289C54.2014 6.25156 54.601 6.20206 54.909 6.15439C55.2207 6.10672 55.4535 6.03889 55.6075 5.95089C55.7565 5.8622 55.8489 5.7323 55.8846 5.56122C55.887 5.54973 55.888 5.538 55.888 5.52626C55.888 5.51604 55.8888 5.50577 55.8904 5.49566C55.9411 5.15834 55.8761 4.89576 55.6955 4.70792C55.5158 4.51359 55.228 4.41642 54.832 4.41642C54.414 4.41642 54.0584 4.50809 53.765 4.69142C53.5576 4.82273 53.3924 4.97943 53.2696 5.16153C53.1822 5.29115 53.0391 5.38129 52.8832 5.36844L51.4919 5.25368C51.2497 5.23371 51.0932 4.98721 51.2066 4.77226C51.381 4.44157 51.6032 4.14513 51.8731 3.88293C52.2617 3.50527 52.7292 3.21561 53.2755 3.01395C53.8219 2.80862 54.4342 2.70595 55.1125 2.70595C55.5818 2.70595 56.02 2.76095 56.427 2.87095C56.8376 2.98095 57.1915 3.15144 57.4885 3.38244C57.7891 3.61344 58.0055 3.91043 58.1375 4.27342C58.2731 4.63275 58.3006 5.06358 58.22 5.5659L57.3197 10.9573C57.2901 11.1342 57.1371 11.2638 56.9578 11.2638H55.4806C55.2536 11.2638 55.081 11.0596 55.1189 10.8357L55.2369 10.1373C55.2409 10.1138 55.2228 10.0923 55.1989 10.0923C55.1861 10.0923 55.1742 10.0986 55.167 10.1091C54.9895 10.3662 54.7733 10.5934 54.5185 10.7908C54.2582 10.9888 53.9594 11.1446 53.622 11.2583C53.2847 11.3683 52.907 11.4233 52.4891 11.4233ZM53.4295 9.80633C53.7705 9.80633 54.084 9.73849 54.37 9.60283C54.6597 9.4635 54.898 9.2765 55.085 9.04184C55.2757 8.80718 55.3967 8.54135 55.448 8.24435L55.5367 7.68808C55.5576 7.55708 55.4003 7.44061 55.272 7.47437C55.1363 7.51103 54.9878 7.54587 54.8265 7.57887C54.6689 7.6082 54.5094 7.6357 54.348 7.66136C54.1867 7.68336 54.0419 7.70536 53.9135 7.72736C53.6312 7.7677 53.3782 7.83186 53.1545 7.91986C52.9309 8.00786 52.7494 8.12702 52.6101 8.27735C52.4707 8.42402 52.3846 8.60735 52.3516 8.82734C52.3002 9.14634 52.3754 9.39017 52.5771 9.55883C52.7824 9.72383 53.0665 9.80633 53.4295 9.80633Z" fill="url(#paint13_radial_132_21)"/>
<path d="M44.9684 11.4288C44.103 11.4288 43.3862 11.2528 42.8179 10.9008C42.2496 10.5451 41.8499 10.0428 41.6189 9.39383C41.3916 8.74118 41.3531 7.96936 41.5034 7.07837C41.6501 6.20939 41.9452 5.44674 42.3889 4.79041C42.8362 4.13409 43.3972 3.6226 44.0719 3.25594C44.7465 2.88928 45.4982 2.70595 46.3268 2.70595C46.8842 2.70595 47.3883 2.79578 47.8393 2.97545C48.294 3.15144 48.6716 3.41911 48.9723 3.77843C49.2729 4.13409 49.4783 4.57958 49.5883 5.11491C49.7019 5.65023 49.7001 6.27722 49.5828 6.99588L49.5283 7.33127C49.4995 7.50888 49.3461 7.63936 49.1661 7.63936H42.7787C42.5536 7.63936 42.3816 7.43857 42.4161 7.21615L42.5277 6.49799C42.5554 6.31924 42.7093 6.18739 42.8902 6.18739H47.1919C47.3717 6.18739 47.5295 6.05688 47.5329 5.87706C47.537 5.66378 47.5053 5.4684 47.4378 5.29091C47.3388 5.03058 47.1738 4.82708 46.9428 4.68042C46.7118 4.53009 46.4277 4.45492 46.0903 4.45492C45.7457 4.45492 45.423 4.53925 45.1224 4.70792C44.8217 4.87658 44.5687 5.09841 44.3634 5.3734C44.1617 5.64473 44.0315 5.93989 43.9729 6.25889L43.7144 7.69986C43.641 8.14352 43.6557 8.51202 43.7584 8.80534C43.8647 9.09867 44.048 9.31867 44.3084 9.46533C44.5687 9.60833 44.8987 9.67983 45.2983 9.67983C45.5587 9.67983 45.8025 9.64316 46.0298 9.56983C46.2608 9.4965 46.4662 9.38833 46.6458 9.24534C46.7659 9.14733 46.8712 9.03378 46.9618 8.90467C47.0451 8.78584 47.1792 8.70709 47.324 8.71677L48.7306 8.81078C48.9766 8.82722 49.1365 9.07753 49.0194 9.29452C48.8377 9.6313 48.6056 9.93573 48.3233 10.2078C47.92 10.5928 47.4341 10.8935 46.8658 11.1098C46.3012 11.3225 45.6687 11.4288 44.9684 11.4288Z" fill="#009B65"/>
<path d="M44.9684 11.4288C44.103 11.4288 43.3862 11.2528 42.8179 10.9008C42.2496 10.5451 41.8499 10.0428 41.6189 9.39383C41.3916 8.74118 41.3531 7.96936 41.5034 7.07837C41.6501 6.20939 41.9452 5.44674 42.3889 4.79041C42.8362 4.13409 43.3972 3.6226 44.0719 3.25594C44.7465 2.88928 45.4982 2.70595 46.3268 2.70595C46.8842 2.70595 47.3883 2.79578 47.8393 2.97545C48.294 3.15144 48.6716 3.41911 48.9723 3.77843C49.2729 4.13409 49.4783 4.57958 49.5883 5.11491C49.7019 5.65023 49.7001 6.27722 49.5828 6.99588L49.5283 7.33127C49.4995 7.50888 49.3461 7.63936 49.1661 7.63936H42.7787C42.5536 7.63936 42.3816 7.43857 42.4161 7.21615L42.5277 6.49799C42.5554 6.31924 42.7093 6.18739 42.8902 6.18739H47.1919C47.3717 6.18739 47.5295 6.05688 47.5329 5.87706C47.537 5.66378 47.5053 5.4684 47.4378 5.29091C47.3388 5.03058 47.1738 4.82708 46.9428 4.68042C46.7118 4.53009 46.4277 4.45492 46.0903 4.45492C45.7457 4.45492 45.423 4.53925 45.1224 4.70792C44.8217 4.87658 44.5687 5.09841 44.3634 5.3734C44.1617 5.64473 44.0315 5.93989 43.9729 6.25889L43.7144 7.69986C43.641 8.14352 43.6557 8.51202 43.7584 8.80534C43.8647 9.09867 44.048 9.31867 44.3084 9.46533C44.5687 9.60833 44.8987 9.67983 45.2983 9.67983C45.5587 9.67983 45.8025 9.64316 46.0298 9.56983C46.2608 9.4965 46.4662 9.38833 46.6458 9.24534C46.7659 9.14733 46.8712 9.03378 46.9618 8.90467C47.0451 8.78584 47.1792 8.70709 47.324 8.71677L48.7306 8.81078C48.9766 8.82722 49.1365 9.07753 49.0194 9.29452C48.8377 9.6313 48.6056 9.93573 48.3233 10.2078C47.92 10.5928 47.4341 10.8935 46.8658 11.1098C46.3012 11.3225 45.6687 11.4288 44.9684 11.4288Z" fill="url(#paint14_radial_132_21)"/>
<path d="M33.9187 1.96346C33.6917 1.96346 33.5192 1.75953 33.5568 1.53574L33.7635 0.306097C33.7932 0.129404 33.9462 0 34.1253 0H42.632C42.859 0 43.0315 0.20393 42.9939 0.427721L42.7872 1.65737C42.7575 1.83406 42.6046 1.96346 42.4254 1.96346H39.5985C39.419 1.96346 39.2658 2.09334 39.2365 2.27044L37.7982 10.9568C37.7689 11.1339 37.6157 11.2638 37.4362 11.2638H35.8261C35.5995 11.2638 35.4271 11.0605 35.4641 10.837L36.8627 2.39031C36.8997 2.16678 36.7273 1.96346 36.5007 1.96346H33.9187Z" fill="#009B65"/>
<path d="M33.9187 1.96346C33.6917 1.96346 33.5192 1.75953 33.5568 1.53574L33.7635 0.306097C33.7932 0.129404 33.9462 0 34.1253 0H42.632C42.859 0 43.0315 0.20393 42.9939 0.427721L42.7872 1.65737C42.7575 1.83406 42.6046 1.96346 42.4254 1.96346H39.5985C39.419 1.96346 39.2658 2.09334 39.2365 2.27044L37.7982 10.9568C37.7689 11.1339 37.6157 11.2638 37.4362 11.2638H35.8261C35.5995 11.2638 35.4271 11.0605 35.4641 10.837L36.8627 2.39031C36.8997 2.16678 36.7273 1.96346 36.5007 1.96346H33.9187Z" fill="url(#paint15_radial_132_21)"/>
<defs>
<filter id="filter0_iiinn_132_21" x="0" y="0" width="28.6562" height="28.6558" filterUnits="userSpaceOnUse" color-interpolation-filters="sRGB">
<feFlood flood-opacity="0" result="BackgroundImageFix"/>
<feBlend mode="normal" in="SourceGraphic" in2="BackgroundImageFix" result="shape"/>
<feColorMatrix in="SourceAlpha" type="matrix" values="0 0 0 0 0 0 0 0 0 0 0 0 0 0 0 0 0 0 127 0" result="hardAlpha"/>
<feOffset/>
<feGaussianBlur stdDeviation="2.39715"/>
<feComposite in2="hardAlpha" operator="arithmetic" k2="-1" k3="1"/>
<feColorMatrix type="matrix" values="0 0 0 0 0 0 0 0 0 0.607843 0 0 0 0 0.396078 0 0 0 1 0"/>
<feBlend mode="normal" in2="shape" result="effect1_innerShadow_132_21"/>
<feColorMatrix in="SourceAlpha" type="matrix" values="0 0 0 0 0 0 0 0 0 0 0 0 0 0 0 0 0 0 127 0" result="hardAlpha"/>
<feOffset/>
<feGaussianBlur stdDeviation="2.39715"/>
<feComposite in2="hardAlpha" operator="arithmetic" k2="-1" k3="1"/>
<feColorMatrix type="matrix" values="0 0 0 0 0.372549 0 0 0 0 0.92549 0 0 0 0 0.513726 0 0 0 1 0"/>
<feBlend mode="normal" in2="effect1_innerShadow_132_21" result="effect2_innerShadow_132_21"/>
<feColorMatrix in="SourceAlpha" type="matrix" values="0 0 0 0 0 0 0 0 0 0 0 0 0 0 0 0 0 0 127 0" result="hardAlpha"/>
<feMorphology radius="0.453556" operator="erode" in="SourceAlpha" result="effect3_innerShadow_132_21"/>
<feOffset/>
<feGaussianBlur stdDeviation="0.719145"/>
<feComposite in2="hardAlpha" operator="arithmetic" k2="-1" k3="1"/>
<feColorMatrix type="matrix" values="0 0 0 0 0.372549 0 0 0 0 0.92549 0 0 0 0 0.513726 0 0 0 1 0"/>
<feBlend mode="normal" in2="effect2_innerShadow_132_21" result="effect3_innerShadow_132_21"/>
<feTurbulence type="fractalNoise" baseFrequency="8.8192014694213867 8.8192014694213867" stitchTiles="stitch" numOctaves="3" result="noise" seed="2560" />
<feColorMatrix in="noise" type="luminanceToAlpha" result="alphaNoise" />
<feComponentTransfer in="alphaNoise" result="coloredNoise1">
<feFuncA type="discrete" tableValues="1 1 1 1 1 1 1 1 1 1 1 1 1 1 1 1 1 1 1 1 1 1 1 1 1 1 1 1 1 1 1 1 1 1 1 1 1 1 1 1 1 1 1 1 1 1 1 1 1 1 1 0 0 0 0 0 0 0 0 0 0 0 0 0 0 0 0 0 0 0 0 0 0 0 0 0 0 0 0 0 0 0 0 0 0 0 0 0 0 0 0 0 0 0 0 0 0 0 0 0 "/>
</feComponentTransfer>
<feComposite operator="in" in2="effect3_innerShadow_132_21" in="coloredNoise1" result="noise1Clipped" />
<feFlood flood-color="rgba(255, 255, 255, 0.15)" result="color1Flood" />
<feComposite operator="in" in2="noise1Clipped" in="color1Flood" result="color1" />
<feMerge result="effect4_noise_132_21">
<feMergeNode in="effect3_innerShadow_132_21" />
<feMergeNode in="color1" />
</feMerge>
<feTurbulence type="fractalNoise" baseFrequency="8.8192014694213867 8.8192014694213867" stitchTiles="stitch" numOctaves="3" result="noise" seed="2560" />
<feColorMatrix in="noise" type="luminanceToAlpha" result="alphaNoise" />
<feComponentTransfer in="alphaNoise" result="coloredNoise1">
<feFuncA type="discrete" tableValues="1 1 1 1 1 1 1 1 1 1 1 1 1 1 1 1 1 1 1 1 1 1 1 1 1 1 1 1 1 1 1 1 1 1 1 1 1 1 1 1 1 1 1 1 1 1 1 1 1 1 1 0 0 0 0 0 0 0 0 0 0 0 0 0 0 0 0 0 0 0 0 0 0 0 0 0 0 0 0 0 0 0 0 0 0 0 0 0 0 0 0 0 0 0 0 0 0 0 0 0 "/>
</feComponentTransfer>
<feComposite operator="in" in2="effect4_noise_132_21" in="coloredNoise1" result="noise1Clipped" />
<feFlood flood-color="rgba(0, 0, 0, 0.15)" result="color1Flood" />
<feComposite operator="in" in2="noise1Clipped" in="color1Flood" result="color1" />
<feMerge result="effect5_noise_132_21">
<feMergeNode in="effect4_noise_132_21" />
<feMergeNode in="color1" />
</feMerge>
</filter>
<filter id="filter1_iiinn_132_21" x="0.71875" y="-5.01465" width="27.4609" height="38.4463" filterUnits="userSpaceOnUse" color-interpolation-filters="sRGB">
<feFlood flood-opacity="0" result="BackgroundImageFix"/>
<feBlend mode="normal" in="SourceGraphic" in2="BackgroundImageFix" result="shape"/>
<feColorMatrix in="SourceAlpha" type="matrix" values="0 0 0 0 0 0 0 0 0 0 0 0 0 0 0 0 0 0 127 0" result="hardAlpha"/>
<feOffset/>
<feGaussianBlur stdDeviation="2.39715"/>
<feComposite in2="hardAlpha" operator="arithmetic" k2="-1" k3="1"/>
<feColorMatrix type="matrix" values="0 0 0 0 0 0 0 0 0 0.607843 0 0 0 0 0.396078 0 0 0 1 0"/>
<feBlend mode="normal" in2="shape" result="effect1_innerShadow_132_21"/>
<feColorMatrix in="SourceAlpha" type="matrix" values="0 0 0 0 0 0 0 0 0 0 0 0 0 0 0 0 0 0 127 0" result="hardAlpha"/>
<feOffset/>
<feGaussianBlur stdDeviation="2.39715"/>
<feComposite in2="hardAlpha" operator="arithmetic" k2="-1" k3="1"/>
<feColorMatrix type="matrix" values="0 0 0 0 0.372549 0 0 0 0 0.92549 0 0 0 0 0.513726 0 0 0 1 0"/>
<feBlend mode="normal" in2="effect1_innerShadow_132_21" result="effect2_innerShadow_132_21"/>
<feColorMatrix in="SourceAlpha" type="matrix" values="0 0 0 0 0 0 0 0 0 0 0 0 0 0 0 0 0 0 127 0" result="hardAlpha"/>
<feMorphology radius="0.453556" operator="erode" in="SourceAlpha" result="effect3_innerShadow_132_21"/>
<feOffset/>
<feGaussianBlur stdDeviation="0.719145"/>
<feComposite in2="hardAlpha" operator="arithmetic" k2="-1" k3="1"/>
<feColorMatrix type="matrix" values="0 0 0 0 0.372549 0 0 0 0 0.92549 0 0 0 0 0.513726 0 0 0 1 0"/>
<feBlend mode="normal" in2="effect2_innerShadow_132_21" result="effect3_innerShadow_132_21"/>
<feTurbulence type="fractalNoise" baseFrequency="8.8192014694213867 8.8192014694213867" stitchTiles="stitch" numOctaves="3" result="noise" seed="2560" />
<feColorMatrix in="noise" type="luminanceToAlpha" result="alphaNoise" />
<feComponentTransfer in="alphaNoise" result="coloredNoise1">
<feFuncA type="discrete" tableValues="1 1 1 1 1 1 1 1 1 1 1 1 1 1 1 1 1 1 1 1 1 1 1 1 1 1 1 1 1 1 1 1 1 1 1 1 1 1 1 1 1 1 1 1 1 1 1 1 1 1 1 0 0 0 0 0 0 0 0 0 0 0 0 0 0 0 0 0 0 0 0 0 0 0 0 0 0 0 0 0 0 0 0 0 0 0 0 0 0 0 0 0 0 0 0 0 0 0 0 0 "/>
</feComponentTransfer>
<feComposite operator="in" in2="effect3_innerShadow_132_21" in="coloredNoise1" result="noise1Clipped" />
<feFlood flood-color="rgba(255, 255, 255, 0.15)" result="color1Flood" />
<feComposite operator="in" in2="noise1Clipped" in="color1Flood" result="color1" />
<feMerge result="effect4_noise_132_21">
<feMergeNode in="effect3_innerShadow_132_21" />
<feMergeNode in="color1" />
</feMerge>
<feTurbulence type="fractalNoise" baseFrequency="8.8192014694213867 8.8192014694213867" stitchTiles="stitch" numOctaves="3" result="noise" seed="2560" />
<feColorMatrix in="noise" type="luminanceToAlpha" result="alphaNoise" />
<feComponentTransfer in="alphaNoise" result="coloredNoise1">
<feFuncA type="discrete" tableValues="1 1 1 1 1 1 1 1 1 1 1 1 1 1 1 1 1 1 1 1 1 1 1 1 1 1 1 1 1 1 1 1 1 1 1 1 1 1 1 1 1 1 1 1 1 1 1 1 1 1 1 0 0 0 0 0 0 0 0 0 0 0 0 0 0 0 0 0 0 0 0 0 0 0 0 0 0 0 0 0 0 0 0 0 0 0 0 0 0 0 0 0 0 0 0 0 0 0 0 0 "/>
</feComponentTransfer>
<feComposite operator="in" in2="effect4_noise_132_21" in="coloredNoise1" result="noise1Clipped" />
<feFlood flood-color="rgba(0, 0, 0, 0.15)" result="color1Flood" />
<feComposite operator="in" in2="noise1Clipped" in="color1Flood" result="color1" />
<feMerge result="effect5_noise_132_21">
<feMergeNode in="effect4_noise_132_21" />
<feMergeNode in="color1" />
</feMerge>
</filter>
<linearGradient id="paint0_linear_132_21" x1="-5.06282" y1="2.28767" x2="21.9353" y2="53.2553" gradientUnits="userSpaceOnUse">
<stop offset="0.191651" stop-color="white" stop-opacity="0.6"/>
<stop offset="0.443389" stop-color="#E8F9F3" stop-opacity="0.6"/>
<stop offset="0.791603" stop-color="#70C0EF"/>
</linearGradient>
<radialGradient id="paint1_radial_132_21" cx="0" cy="0" r="1" gradientTransform="matrix(-19.1429 4.7303 -3.67634 -15.0026 21.9664 11.9943)" gradientUnits="userSpaceOnUse">
<stop stop-color="white"/>
<stop offset="1" stop-color="#009B65"/>
</radialGradient>
<radialGradient id="paint2_radial_132_21" cx="0" cy="0" r="1" gradientTransform="matrix(76.8927 -207.556 112.907 -84.1032 68.6546 31.9883)" gradientUnits="userSpaceOnUse">
<stop offset="0.626249" stop-color="white"/>
<stop offset="1" stop-color="#009B65"/>
</radialGradient>
<radialGradient id="paint3_radial_132_21" cx="0" cy="0" r="1" gradientTransform="matrix(-24.4037 -33.9157 -11.3543 -53.7575 61.3517 52.0099)" gradientUnits="userSpaceOnUse">
<stop stop-color="white"/>
<stop offset="1" stop-color="#009B65"/>
</radialGradient>
<radialGradient id="paint4_radial_132_21" cx="0" cy="0" r="1" gradientTransform="matrix(76.8927 -207.556 112.907 -84.1032 68.6546 31.9883)" gradientUnits="userSpaceOnUse">
<stop offset="0.626249" stop-color="white"/>
<stop offset="1" stop-color="#009B65"/>
</radialGradient>
<radialGradient id="paint5_radial_132_21" cx="0" cy="0" r="1" gradientTransform="matrix(-24.4037 -33.9157 -11.3543 -53.7575 61.3517 52.0099)" gradientUnits="userSpaceOnUse">
<stop stop-color="white"/>
<stop offset="1" stop-color="#009B65"/>
</radialGradient>
<radialGradient id="paint6_radial_132_21" cx="0" cy="0" r="1" gradientTransform="matrix(76.8927 -207.556 112.907 -84.1032 68.6546 31.9883)" gradientUnits="userSpaceOnUse">
<stop offset="0.626249" stop-color="white"/>
<stop offset="1" stop-color="#009B65"/>
</radialGradient>
<radialGradient id="paint7_radial_132_21" cx="0" cy="0" r="1" gradientTransform="matrix(-24.4037 -33.9157 -11.3543 -53.7575 61.3517 52.0099)" gradientUnits="userSpaceOnUse">
<stop stop-color="white"/>
<stop offset="1" stop-color="#009B65"/>
</radialGradient>
<radialGradient id="paint8_radial_132_21" cx="0" cy="0" r="1" gradientTransform="matrix(76.8927 -207.556 112.907 -84.1032 68.6546 31.9883)" gradientUnits="userSpaceOnUse">
<stop offset="0.626249" stop-color="white"/>
<stop offset="1" stop-color="#009B65"/>
</radialGradient>
<radialGradient id="paint9_radial_132_21" cx="0" cy="0" r="1" gradientTransform="matrix(-24.4037 -33.9157 -11.3543 -53.7575 61.3517 52.0099)" gradientUnits="userSpaceOnUse">
<stop stop-color="white"/>
<stop offset="1" stop-color="#009B65"/>
</radialGradient>
<radialGradient id="paint10_radial_132_21" cx="0" cy="0" r="1" gradientTransform="matrix(76.8927 -207.556 112.907 -84.1032 68.6546 31.9883)" gradientUnits="userSpaceOnUse">
<stop offset="0.626249" stop-color="white"/>
<stop offset="1" stop-color="#009B65"/>
</radialGradient>
<radialGradient id="paint11_radial_132_21" cx="0" cy="0" r="1" gradientTransform="matrix(-24.4037 -33.9157 -11.3543 -53.7575 61.3517 52.0099)" gradientUnits="userSpaceOnUse">
<stop stop-color="white"/>
<stop offset="1" stop-color="#009B65"/>
</radialGradient>
<radialGradient id="paint12_radial_132_21" cx="0" cy="0" r="1" gradientTransform="matrix(-23.3876 11.1904 -23.9713 -4.56124 59.1338 -4.728)" gradientUnits="userSpaceOnUse">
<stop stop-color="white"/>
<stop offset="1" stop-color="#009B65"/>
</radialGradient>
<radialGradient id="paint13_radial_132_21" cx="0" cy="0" r="1" gradientTransform="matrix(-23.3876 11.1904 -23.9713 -4.56124 59.1338 -4.728)" gradientUnits="userSpaceOnUse">
<stop stop-color="white"/>
<stop offset="1" stop-color="#009B65"/>
</radialGradient>
<radialGradient id="paint14_radial_132_21" cx="0" cy="0" r="1" gradientTransform="matrix(-23.3876 11.1904 -23.9713 -4.56124 59.1338 -4.728)" gradientUnits="userSpaceOnUse">
<stop stop-color="white"/>
<stop offset="1" stop-color="#009B65"/>
</radialGradient>
<radialGradient id="paint15_radial_132_21" cx="0" cy="0" r="1" gradientTransform="matrix(-23.3876 11.1904 -23.9713 -4.56124 59.1338 -4.728)" gradientUnits="userSpaceOnUse">
<stop stop-color="white"/>
<stop offset="1" stop-color="#009B65"/>
</radialGradient>
<clipPath id="clip0_132_21">
<rect width="28.6556" height="28.6556" rx="7.64149" fill="white"/>
</clipPath>
</defs>
</svg>
