<svg width="442" height="252" viewBox="0 0 442 252" fill="none" xmlns="http://www.w3.org/2000/svg">
<g clip-path="url(#clip0_237_126430)">
<g clip-path="url(#clip1_237_126430)">
<path d="M334.868 231.95C346.984 230.247 355.149 217.079 353.106 202.539C351.062 187.998 339.584 177.591 327.468 179.294C315.351 180.997 307.186 194.164 309.229 208.705C311.273 223.245 322.752 233.653 334.868 231.95Z" fill="#E0E0E0"/>
<path d="M330.614 232.557C342.73 230.854 350.895 217.686 348.852 203.146C346.808 188.605 335.33 178.198 323.214 179.901C311.097 181.604 302.932 194.772 304.976 209.312C307.019 223.853 318.498 234.26 330.614 232.557Z" fill="#EBEBEB"/>
<path d="M343.033 203.467C344.604 214.646 338.46 224.749 329.314 226.062C320.169 227.375 311.475 219.337 309.947 208.158C308.419 196.979 314.52 186.876 323.666 185.563C332.811 184.25 341.462 192.299 343.033 203.467Z" fill="#E0E0E0"/>
<path d="M343.905 203.843C345.433 214.753 339.494 224.598 330.639 225.846C321.784 227.095 313.359 219.262 311.82 208.351C310.282 197.441 316.232 187.596 325.087 186.348C333.942 185.1 342.367 192.944 343.905 203.843Z" fill="#F5F5F5"/>
<path d="M333.542 187.683C333.542 187.683 333.704 187.736 333.973 187.898C334.38 188.122 334.772 188.374 335.146 188.651C336.553 189.637 337.823 190.805 338.922 192.126C340.558 194.075 341.866 196.278 342.796 198.647C343.936 201.56 344.474 204.675 344.377 207.803C344.309 210.925 343.663 214.008 342.473 216.895C341.67 218.881 340.427 220.66 338.837 222.097C337.247 223.534 335.352 224.591 333.295 225.19C332.714 225.352 332.219 225.427 331.939 225.502C331.782 225.546 331.619 225.568 331.455 225.567C332.034 225.335 332.627 225.141 333.23 224.986C334.814 224.428 336.296 223.618 337.62 222.586C339.561 221.029 341.069 218.999 341.999 216.69C343.137 213.854 343.753 210.836 343.818 207.781C343.91 204.731 343.398 201.692 342.311 198.84C341.429 196.507 340.184 194.329 338.621 192.385C337.133 190.61 335.426 189.03 333.542 187.683V187.683Z" fill="#E0E0E0"/>
<path d="M305.816 212.225C305.427 211.313 305.173 210.349 305.063 209.363C304.669 206.995 304.59 204.586 304.826 202.197C305.05 199.808 305.593 197.459 306.44 195.214C306.744 194.271 307.175 193.373 307.721 192.546C307.471 193.496 307.166 194.43 306.806 195.343C306.094 197.591 305.614 199.906 305.375 202.251C305.161 204.597 305.187 206.958 305.45 209.298C305.666 211.106 305.902 212.203 305.816 212.225Z" fill="white"/>
<path d="M309.366 219.929C309.237 220.004 308.635 219.176 308.032 218.068C307.43 216.959 307.042 216.013 307.171 215.916C307.3 215.819 307.914 216.669 308.516 217.777C309.119 218.885 309.506 219.864 309.366 219.929Z" fill="white"/>
<path d="M329.37 187.274C329.37 187.371 328.37 187.274 326.81 187.414C322.693 187.802 318.885 189.764 316.179 192.89C315.103 194.085 314.662 194.945 314.576 194.902C314.86 194.075 315.299 193.308 315.867 192.643C317.17 190.969 318.822 189.599 320.709 188.63C322.592 187.662 324.662 187.112 326.777 187.016C327.65 186.937 328.53 187.025 329.37 187.274Z" fill="white"/>
<path d="M321.881 200.981C321.827 200.981 321.633 200.874 321.472 200.54C321.276 200.09 321.224 199.59 321.321 199.109C321.41 198.631 321.642 198.192 321.988 197.85C322.268 197.592 322.494 197.528 322.537 197.592C322.58 197.657 322.031 198.281 321.87 199.217C321.708 200.153 322.02 200.895 321.881 200.981Z" fill="white"/>
<path d="M323.332 212.15C323.332 212.225 323.235 212.29 323.084 212.268C322.994 212.245 322.911 212.201 322.842 212.139C322.773 212.077 322.719 212 322.686 211.913C322.645 211.832 322.623 211.741 322.623 211.65C322.623 211.558 322.645 211.468 322.686 211.386C322.772 211.268 322.88 211.246 322.945 211.3C323.039 211.419 323.112 211.554 323.16 211.698C323.242 211.838 323.301 211.991 323.332 212.15V212.15Z" fill="white"/>
<path d="M345.326 26.5101C361.103 20.0038 367.565 -0.616876 359.759 -19.5476C351.952 -38.4784 332.833 -48.5504 317.056 -42.0442C301.278 -35.538 294.817 -14.9173 302.623 4.01348C310.43 22.9442 329.548 33.0163 345.326 26.5101Z" fill="#E0E0E0"/>
<path d="M350.861 24.2298C366.639 17.7236 373.1 -2.89715 365.294 -21.8279C357.487 -40.7586 338.368 -50.8307 322.591 -44.3245C306.814 -37.8183 300.352 -17.1975 308.158 1.7332C315.965 20.6639 335.084 30.736 350.861 24.2298Z" fill="#EBEBEB"/>
<path d="M315.922 -0.715781C309.875 -15.2734 314.706 -31.0468 326.617 -35.9747C338.527 -40.9025 353.042 -33.0696 359.046 -18.5227C365.05 -3.9759 360.251 11.8083 348.351 16.7146C336.451 21.6209 321.925 13.8311 315.922 -0.715781Z" fill="#E0E0E0"/>
<path d="M314.617 -0.920372C308.796 -15.1229 313.358 -30.4875 324.935 -35.2432C336.513 -39.9989 350.565 -32.3489 356.418 -18.1463C362.271 -3.94379 357.677 11.4208 346.142 16.1765C334.608 20.9322 320.47 13.2714 314.617 -0.920372Z" fill="#F5F5F5"/>
<path d="M334.201 17.3169C333.976 17.294 333.755 17.2397 333.545 17.1555C332.924 16.9826 332.313 16.7742 331.716 16.5314C329.495 15.6666 327.394 14.5203 325.464 13.1207C322.592 11.0501 320.074 8.52853 318.008 5.65357C316.795 3.96268 315.743 2.16151 314.866 0.273818C313.931 -1.76953 313.21 -3.9041 312.714 -6.09581C311.718 -10.3257 311.517 -14.704 312.123 -19.0072C312.514 -21.9585 313.565 -24.7837 315.199 -27.2725C316.832 -29.7613 319.006 -31.8495 321.559 -33.3819C322.29 -33.8015 322.882 -34.0813 323.28 -34.2857C323.472 -34.4023 323.678 -34.4927 323.894 -34.5547C323.714 -34.4175 323.523 -34.2951 323.323 -34.1889C322.958 -33.9522 322.376 -33.6401 321.677 -33.199C319.718 -31.9044 317.985 -30.2979 316.545 -28.4433C314.448 -25.6567 313.103 -22.3776 312.639 -18.9211C312.078 -14.6856 312.293 -10.3834 313.274 -6.22492C313.758 -4.07291 314.457 -1.97502 315.361 0.0371075C316.225 1.91624 317.251 3.71633 318.428 5.41686C320.451 8.26166 322.904 10.7737 325.701 12.8624C327.589 14.2716 329.637 15.4526 331.802 16.3808C333.33 16.9833 334.223 17.2631 334.201 17.3169Z" fill="#E0E0E0"/>
<path d="M363.153 -25.4629C363.393 -25.1836 363.592 -24.8721 363.745 -24.5376C364.241 -23.658 364.69 -22.7529 365.09 -21.8262C367.761 -15.6772 368.809 -8.94602 368.135 -2.27617C368.044 -1.27108 367.893 -0.272289 367.683 0.714968C367.637 1.0842 367.543 1.44587 367.403 1.79092C367.307 1.79092 367.576 0.220036 367.737 -2.29769C367.951 -5.58881 367.806 -8.89341 367.307 -12.1534C366.786 -15.4065 365.92 -18.5949 364.724 -21.6648C363.799 -24.0319 363.067 -25.4199 363.153 -25.4629Z" fill="white"/>
<path d="M340 16.4136C340 16.306 341.356 16.1338 343.443 15.4129C344.656 14.9838 345.829 14.451 346.951 13.8205C348.306 13.0312 349.582 12.1124 350.759 11.0769C351.945 10.0214 353.026 8.85399 353.987 7.59079C354.748 6.54746 355.414 5.43844 355.978 4.27687C356.935 2.29712 357.269 0.952177 357.377 0.984455C357.36 1.30961 357.302 1.63133 357.204 1.94205C357.125 2.30847 357.017 2.66819 356.882 3.018C356.731 3.42686 356.58 3.9218 356.344 4.4275C355.814 5.63672 355.165 6.7901 354.407 7.87054C353.465 9.18535 352.382 10.3939 351.179 11.475C349.965 12.5382 348.642 13.4688 347.23 14.2509C346.067 14.8745 344.845 15.3827 343.583 15.768C343.103 15.9222 342.614 16.048 342.12 16.1446C341.766 16.2339 341.406 16.2986 341.044 16.3383C340.703 16.4249 340.35 16.4504 340 16.4136Z" fill="white"/>
<path d="M345.379 -4.68604C345.379 -4.68604 345.712 -4.5892 346.024 -4.1911C346.421 -3.66068 346.65 -3.02358 346.681 -2.36199C346.722 -1.69909 346.573 -1.03819 346.25 -0.457551C345.981 -0.0271712 345.723 0.155739 345.669 0.112701C345.941 -0.67435 346.093 -1.4976 346.121 -2.32971C345.988 -3.14677 345.738 -3.94038 345.379 -4.68604Z" fill="white"/>
<path d="M433.197 135.077C443.409 128.338 445.132 112.94 437.045 100.685C428.958 88.4292 414.123 83.957 403.911 90.6958C393.699 97.4346 391.976 112.833 400.063 125.088C408.15 137.344 422.985 141.816 433.197 135.077Z" fill="#E0E0E0"/>
<path d="M436.791 132.802C447.005 126.065 448.73 110.668 440.645 98.4106C432.56 86.1536 417.726 81.6788 407.512 88.4158C397.299 95.1528 395.574 110.551 403.659 122.808C411.744 135.065 426.578 139.539 436.791 132.802Z" fill="#EBEBEB"/>
<path d="M408.784 119.973C402.565 110.559 403.781 98.7986 411.485 93.7093C419.189 88.6201 430.486 92.1385 436.694 101.564C442.903 110.989 441.698 122.738 433.994 127.828C426.29 132.917 414.992 129.399 408.784 119.973Z" fill="#E0E0E0"/>
<path d="M407.837 120.038C401.769 110.838 402.909 99.3903 410.376 94.4732C417.844 89.5561 428.807 92.9991 434.876 102.198C440.944 111.398 439.804 122.835 432.337 127.763C424.869 132.691 413.895 129.205 407.837 120.038Z" fill="#F5F5F5"/>
<path d="M424.117 130.173C423.957 130.197 423.794 130.197 423.633 130.173C423.171 130.141 422.711 130.084 422.256 130.001C420.569 129.704 418.927 129.191 417.371 128.473C412.165 126.094 408.017 121.88 405.719 116.638C404.45 113.787 403.721 110.726 403.567 107.61C403.438 105.47 403.797 103.328 404.617 101.346C405.437 99.3651 406.697 97.596 408.301 96.173C408.753 95.7749 409.14 95.5059 409.377 95.3122C409.614 95.1186 409.775 95.0325 409.786 95.054C409.366 95.5096 408.916 95.9373 408.441 96.3344C407.247 97.5158 406.252 98.8818 405.493 100.38C404.415 102.623 403.926 105.104 404.072 107.589C404.251 110.636 404.98 113.625 406.224 116.412C407.448 119.209 409.215 121.736 411.421 123.846C413.221 125.577 415.284 127.011 417.533 128.096C419.634 129.055 421.846 129.753 424.117 130.173V130.173Z" fill="#E0E0E0"/>
<path d="M438.643 96.0981C439.377 96.7615 440.018 97.5216 440.547 98.3576C443.297 102.314 444.962 106.921 445.378 111.721C445.517 112.706 445.517 113.706 445.378 114.691C445.292 114.691 445.249 113.561 445.001 111.764C444.383 107.078 442.757 102.581 440.235 98.5836C439.662 97.7832 439.13 96.9536 438.643 96.0981V96.0981Z" fill="white"/>
<path d="M432.122 90.6646C432.208 90.5354 433.112 91.0304 434.134 91.7405C435.156 92.4506 435.909 93.1715 435.812 93.3006C435.715 93.4297 434.822 92.9348 433.8 92.2247C432.778 91.5146 432.025 90.7829 432.122 90.6646Z" fill="white"/>
<path d="M428.066 128.743C428.066 128.646 428.97 128.323 430.326 127.516C433.872 125.391 436.468 121.987 437.578 118.005C437.997 116.488 438.062 115.498 438.159 115.508C438.258 116.377 438.192 117.257 437.965 118.101C437.504 120.171 436.601 122.116 435.318 123.804C434.033 125.489 432.395 126.873 430.52 127.86C429.767 128.312 428.934 128.612 428.066 128.743Z" fill="white"/>
<path d="M428.95 113.152C428.95 113.152 429.219 113.152 429.509 113.378C429.882 113.694 430.145 114.119 430.262 114.594C430.387 115.066 430.364 115.565 430.198 116.025C430.058 116.369 429.875 116.53 429.81 116.498C429.746 116.466 429.972 115.648 429.724 114.734C429.477 113.819 428.864 113.292 428.95 113.152Z" fill="white"/>
<path d="M422.848 103.684C422.848 103.608 422.848 103.511 423.02 103.479C423.109 103.459 423.202 103.462 423.29 103.486C423.378 103.51 423.459 103.556 423.526 103.619C423.597 103.678 423.652 103.755 423.686 103.841C423.72 103.928 423.731 104.022 423.719 104.114C423.719 104.265 423.601 104.318 423.526 104.308C423.387 104.238 423.26 104.147 423.149 104.039C423.029 103.938 422.927 103.818 422.848 103.684V103.684Z" fill="white"/>
<path d="M108.129 151.663C118.661 135.888 116.543 115.984 103.397 107.207C90.2513 98.4303 71.0563 104.103 60.5238 119.878C49.9914 135.653 52.1098 155.556 65.2556 164.333C78.4013 173.11 97.5962 167.437 108.129 151.663Z" fill="#E0E0E0"/>
<path d="M103.517 148.586C114.05 132.811 111.931 112.908 98.7857 104.131C85.64 95.3541 66.445 101.027 55.9125 116.802C45.38 132.577 47.4985 152.48 60.6442 161.257C73.79 170.034 92.9849 164.361 103.517 148.586Z" fill="#EBEBEB"/>
<path d="M97.632 143.903C89.5301 156.018 74.9295 160.483 64.9985 153.855C55.0674 147.227 53.6042 132.035 61.6953 119.909C69.7864 107.783 84.3979 103.328 94.3181 109.946C104.238 116.563 105.723 131.777 97.632 143.903Z" fill="#E0E0E0"/>
<path d="M98.1358 145.01C90.2383 156.846 76.0466 161.225 66.4383 154.812C56.8301 148.4 55.4421 133.605 63.3396 121.77C71.2371 109.934 85.4396 105.545 95.0478 111.968C104.656 118.391 106.044 133.175 98.1358 145.01Z" fill="#F5F5F5"/>
<path d="M102.062 120.533C102.163 120.714 102.236 120.91 102.278 121.114C102.467 121.682 102.626 122.26 102.751 122.846C103.238 124.998 103.444 127.204 103.364 129.409C103.255 132.69 102.616 135.931 101.471 139.007C100.8 140.817 99.9684 142.564 98.9852 144.225C97.8859 145.993 96.6098 147.644 95.1763 149.153C92.4371 152.101 89.1758 154.515 85.5574 156.276C83.0825 157.501 80.3622 158.151 77.6006 158.175C74.839 158.199 72.1078 157.598 69.6118 156.416C68.9124 156.071 68.396 155.759 68.0409 155.566C67.8543 155.473 67.6777 155.361 67.5137 155.232C67.7168 155.285 67.9121 155.365 68.0947 155.469C68.4713 155.63 68.9985 155.91 69.7086 156.222C71.7025 157.049 73.8173 157.547 75.9706 157.696C79.1931 157.87 82.4059 157.21 85.2991 155.781C88.847 154.03 92.045 151.645 94.7352 148.744C96.1401 147.264 97.391 145.646 98.4688 143.913C99.46 142.289 100.303 140.578 100.986 138.802C102.135 135.783 102.803 132.603 102.966 129.377C103.068 127.216 102.924 125.05 102.536 122.921C102.213 121.372 102.009 120.543 102.062 120.533Z" fill="#E0E0E0"/>
<path d="M54.2168 120.339C54.3033 120.006 54.4374 119.687 54.6149 119.392C54.9054 118.8 55.3788 117.961 56.0029 116.96C57.6754 114.359 59.6711 111.98 61.9421 109.881C64.2118 107.772 66.7431 105.964 69.4738 104.501C70.2943 104.061 71.1384 103.665 72.0022 103.317C72.3131 103.165 72.6422 103.053 72.9814 102.984C72.9814 103.07 71.6902 103.673 69.6674 104.845C64.3723 107.918 59.8205 112.12 56.3364 117.154C55.0022 119.102 54.3029 120.382 54.2168 120.339Z" fill="white"/>
<path d="M51.0195 130.797C51.0904 128.815 51.5396 126.865 52.343 125.052C52.2721 127.034 51.8229 128.984 51.0195 130.797V130.797Z" fill="white"/>
<path d="M98.385 116.541C98.3097 116.616 97.4597 115.648 95.8242 114.389C94.8688 113.676 93.8536 113.046 92.7901 112.506C90.1729 111.202 87.3087 110.469 84.3869 110.354C83.1973 110.304 82.0056 110.358 80.8255 110.516C78.8027 110.806 77.5977 111.237 77.5977 111.14C77.5977 111.043 77.8774 110.968 78.4154 110.763C79.1872 110.48 79.9831 110.268 80.7932 110.128C81.9956 109.905 83.2181 109.808 84.4407 109.838C85.9356 109.88 87.4218 110.082 88.8736 110.44C90.3219 110.829 91.7249 111.37 93.0591 112.054C94.1386 112.626 95.1586 113.304 96.104 114.077C96.7454 114.594 97.3395 115.166 97.8793 115.788C98.0842 116.013 98.2546 116.266 98.385 116.541V116.541Z" fill="white"/>
<path d="M79.3819 123.266C79.3174 123.266 79.2743 122.965 79.3819 122.513C79.5864 121.928 79.9611 121.419 80.4579 121.049C80.9463 120.667 81.539 120.442 82.1579 120.404C82.6313 120.404 82.9003 120.501 82.8895 120.565C82.8788 120.63 81.8136 120.716 80.8022 121.491C79.7908 122.265 79.5433 123.352 79.3819 123.266Z" fill="white"/>
<path d="M71.1735 135.327C71.1197 135.327 70.9906 135.327 70.8937 135.209C70.8334 135.116 70.7961 135.01 70.7848 134.899C70.7736 134.789 70.7888 134.677 70.8292 134.574C70.8647 134.469 70.9239 134.374 71.0023 134.295C71.0807 134.217 71.1761 134.158 71.2811 134.122C71.4532 134.122 71.5608 134.122 71.5716 134.208C71.5823 134.294 71.4317 134.52 71.3564 134.768C71.2811 135.015 71.2811 135.22 71.1735 135.327Z" fill="white"/>
<path d="M76.5847 271.994C61.9948 273.619 49.0726 265.065 47.7169 252.907C46.3612 240.749 57.11 229.569 71.6999 227.956C86.2897 226.342 99.2227 234.885 100.568 247.054C101.913 259.223 91.1853 270.38 76.5847 271.994Z" fill="#E0E0E0"/>
<path d="M76.134 267.719C90.7279 266.1 101.465 254.929 100.116 242.768C98.767 230.608 85.8428 222.062 71.2489 223.681C56.6549 225.3 45.9178 236.47 47.2668 248.631C48.6158 260.792 61.5401 269.337 76.134 267.719Z" fill="#EBEBEB"/>
<path d="M75.9612 261.902C64.7498 263.139 54.8726 256.684 53.7966 247.527C52.7207 238.371 61.0593 229.903 72.2814 228.709C83.5036 227.515 93.4131 233.906 94.4352 243.084C95.4574 252.261 87.1511 260.654 75.9612 261.902Z" fill="#E0E0E0"/>
<path d="M75.5641 262.763C64.6217 263.968 54.9489 257.749 53.959 248.862C52.9691 239.974 61.0495 231.776 71.9919 230.57C82.9343 229.365 92.6179 235.574 93.6078 244.461C94.5976 253.348 86.5065 261.547 75.5641 262.763Z" fill="#F5F5F5"/>
<path d="M92.0248 252.896C91.9649 253.046 91.8853 253.187 91.7881 253.316C91.5537 253.715 91.295 254.1 91.0134 254.467C89.9823 255.833 88.7779 257.059 87.4305 258.115C82.9512 261.677 77.3172 263.466 71.6033 263.139C68.4865 262.99 65.425 262.26 62.5761 260.987C60.2355 259.933 58.2106 258.287 56.7014 256.21C55.7158 254.804 54.9872 253.234 54.5495 251.573C54.3989 250.981 54.3343 250.497 54.2805 250.206C54.2362 250.049 54.2181 249.885 54.2267 249.722C54.4401 250.306 54.6162 250.902 54.7539 251.508C55.2679 253.095 56.0345 254.588 57.0242 255.93C58.5306 257.911 60.5149 259.477 62.7913 260.482C65.5948 261.697 68.5945 262.397 71.6463 262.548C74.6934 262.733 77.747 262.312 80.6305 261.31C82.9757 260.474 85.1757 259.276 87.1508 257.76C88.965 256.34 90.6015 254.707 92.0248 252.896Z" fill="#E0E0E0"/>
<path d="M68.2988 224.405C69.2224 224.044 70.1939 223.819 71.1824 223.738C75.956 223.089 80.8164 223.705 85.2773 225.524C86.2193 225.845 87.1079 226.306 87.9134 226.891C87.9134 226.966 86.8374 226.493 85.1374 225.89C80.6816 224.305 75.9357 223.703 71.2254 224.125C69.4178 224.33 68.3096 224.534 68.2988 224.405Z" fill="white"/>
<path d="M60.489 227.773C60.4136 227.633 61.2744 227.063 62.3934 226.493C63.5124 225.922 64.4807 225.556 64.5453 225.696C64.6099 225.836 63.7599 226.417 62.6409 226.987C61.5219 227.558 60.5643 227.913 60.489 227.773Z" fill="white"/>
<path d="M92.5316 248.721C92.4347 248.721 92.5316 247.721 92.467 246.15C92.3215 244.11 91.7998 242.115 90.9284 240.264C90.0368 238.42 88.8069 236.759 87.3024 235.369C86.1404 234.293 85.2904 233.798 85.3442 233.712C86.1621 234.02 86.9143 234.48 87.5607 235.068C89.1967 236.416 90.5189 238.106 91.4351 240.018C92.3512 241.93 92.8392 244.019 92.8651 246.139C92.921 247.013 92.8078 247.89 92.5316 248.721V248.721Z" fill="white"/>
<path d="M79.0703 240.835C79.0703 240.835 79.1887 240.598 79.5222 240.437C79.9782 240.26 80.4764 240.223 80.9535 240.33C81.4306 240.437 81.865 240.684 82.2013 241.039C82.438 241.319 82.5026 241.556 82.438 241.588C82.3735 241.62 81.7602 241.061 80.8349 240.878C79.9096 240.695 79.1564 240.975 79.0703 240.835Z" fill="white"/>
<path d="M67.8585 241.965C67.7832 241.965 67.7294 241.857 67.7509 241.706C67.7765 241.617 67.8231 241.536 67.8868 241.468C67.9504 241.401 68.0292 241.35 68.1167 241.319C68.2029 241.284 68.2964 241.272 68.3886 241.283C68.4808 241.295 68.5687 241.329 68.6439 241.384C68.7623 241.47 68.773 241.577 68.73 241.642C68.6027 241.733 68.4608 241.802 68.3104 241.846C68.1661 241.907 68.014 241.947 67.8585 241.965Z" fill="white"/>
<path d="M12.4916 1.43604L13.4385 3.17908L15.1815 4.13667L13.4385 5.08351L12.4916 6.83731L11.5341 5.08351L9.79102 4.13667L11.5341 3.17908L12.4916 1.43604Z" fill="#E0E0E0"/>
<path d="M414.245 92.7243C421.193 72.7054 413.3 51.7828 396.616 45.9923C379.932 40.2018 360.774 51.7362 353.826 71.7551C346.878 91.7739 354.771 112.697 371.456 118.487C388.14 124.278 407.297 112.743 414.245 92.7243Z" fill="#00A572"/>
<g opacity="0.2">
<path d="M414.245 92.7243C421.193 72.7054 413.3 51.7828 396.616 45.9923C379.932 40.2018 360.774 51.7362 353.826 71.7551C346.878 91.7739 354.771 112.697 371.456 118.487C388.14 124.278 407.297 112.743 414.245 92.7243Z" fill="black"/>
</g>
<path d="M408.404 90.6935C415.351 70.6746 407.458 49.752 390.774 43.9615C374.09 38.171 354.932 49.7054 347.984 69.7243C341.037 89.7432 348.93 110.666 365.614 116.456C382.298 122.247 401.456 110.712 408.404 90.6935Z" fill="#00A572"/>
<g opacity="0.1">
<path d="M402.392 51.887C399.258 48.2715 395.234 45.5379 390.718 43.9573C374.03 38.1687 354.878 49.7029 347.927 69.7155C345.197 77.3872 344.683 85.6726 346.443 93.6231C355.828 94.1084 365.21 92.5937 373.965 89.1795C382.638 85.7795 389.868 80.2814 394.226 71.8997C397.281 66.1219 401.596 58.9022 402.392 51.887Z" fill="white"/>
</g>
<path d="M400.693 87.2643C395.313 102.65 380.82 111.581 368.231 107.212C355.643 102.844 349.757 86.7694 355.094 71.4371C360.431 56.1048 374.978 47.1206 387.566 51.4889C400.155 55.8573 406.029 71.8782 400.693 87.2643Z" fill="#00A572"/>
<g opacity="0.2">
<path d="M400.693 87.2643C395.313 102.65 380.82 111.581 368.231 107.212C355.643 102.844 349.757 86.7694 355.094 71.4371C360.431 56.1048 374.978 47.1206 387.566 51.4889C400.155 55.8573 406.029 71.8782 400.693 87.2643Z" fill="black"/>
</g>
<path d="M401.564 88.3188C396.356 103.328 382.197 112.076 370.05 107.837C357.902 103.597 352.189 88.0068 357.407 72.9973C362.625 57.9878 376.72 49.2403 388.911 53.4688C401.101 57.6973 406.772 73.2986 401.564 88.3188Z" fill="#00A572"/>
<g opacity="0.2">
<path d="M401.564 88.3188C396.356 103.328 382.197 112.076 370.05 107.837C357.902 103.597 352.189 88.0068 357.407 72.9973C362.625 57.9878 376.72 49.2403 388.911 53.4688C401.101 57.6973 406.772 73.2986 401.564 88.3188Z" fill="white"/>
</g>
<path d="M398.919 60.7529C399.072 60.9253 399.202 61.117 399.306 61.3232C399.671 61.8837 400.001 62.4658 400.296 63.0662C401.425 65.258 402.264 67.5872 402.792 69.9954C403.596 73.5658 403.818 77.2428 403.448 80.884C403.218 83.0341 402.793 85.1589 402.179 87.2321C401.492 89.4704 400.58 91.6334 399.457 93.6878C397.325 97.638 394.484 101.161 391.075 104.081C388.74 106.102 385.98 107.57 382.999 108.375C380.018 109.179 376.894 109.301 373.86 108.73C373.01 108.557 372.364 108.374 371.923 108.256C371.694 108.213 371.47 108.145 371.256 108.052C371.489 108.055 371.72 108.088 371.944 108.149C372.396 108.224 373.02 108.385 373.903 108.514C376.308 108.866 378.754 108.819 381.144 108.374C384.681 107.656 387.975 106.041 390.709 103.683C394.052 100.784 396.84 97.3027 398.94 93.408C400.036 91.4062 400.934 89.3016 401.619 87.1245C402.233 85.0871 402.661 82.9984 402.9 80.884C403.291 77.2921 403.113 73.6609 402.372 70.1245C401.885 67.7343 401.112 65.4114 400.07 63.2061C399.37 61.6029 398.865 60.7744 398.919 60.7529Z" fill="#38382A"/>
<path d="M407.611 92.4722C407.475 93.0553 407.295 93.6272 407.073 94.183C406.854 94.8504 406.588 95.5012 406.277 96.1305C405.914 96.9866 405.501 97.8202 405.039 98.6267C404.792 99.0893 404.523 99.552 404.243 100.047C403.963 100.542 403.619 101.005 403.285 101.521C402.567 102.598 401.791 103.636 400.961 104.63C399.032 106.907 396.869 108.974 394.506 110.796C392.132 112.58 389.579 114.112 386.888 115.368C385.707 115.899 384.501 116.37 383.273 116.778C382.692 116.972 382.197 117.176 381.594 117.327L380.023 117.725C379.119 117.95 378.203 118.126 377.28 118.252C376.591 118.388 375.893 118.474 375.192 118.51C374.599 118.574 374.003 118.599 373.406 118.586C373.406 118.446 375.956 118.36 379.927 117.337L381.465 116.907C382.003 116.756 382.541 116.541 383.111 116.348C384.263 115.982 385.425 115.433 386.662 114.895C389.317 113.631 391.84 112.106 394.194 110.344C396.504 108.543 398.634 106.521 400.552 104.308C401.392 103.232 402.231 102.263 402.877 101.252C403.221 100.757 403.565 100.294 403.856 99.821L404.673 98.433C406.696 94.8824 407.482 92.4292 407.611 92.4722Z" fill="#38382A"/>
<path d="M347.133 74.0196C347.15 73.6337 347.212 73.2511 347.316 72.8791C347.539 71.8612 347.816 70.8556 348.144 69.8664C349.224 66.5882 350.709 63.458 352.566 60.5487C354.433 57.6433 356.66 54.9861 359.194 52.6405C359.959 51.9295 360.76 51.258 361.594 50.6285C361.884 50.3768 362.206 50.1634 362.551 49.9937C362.551 50.069 361.335 51.0696 359.463 52.931C354.59 57.7331 350.852 63.5633 348.521 69.9956C347.617 72.4595 347.23 74.0411 347.133 74.0196Z" fill="white"/>
<path d="M346.638 86.2532C346.331 85.2061 346.204 84.1148 346.261 83.0253C346.133 81.9214 346.198 80.8035 346.455 79.7222C346.753 80.7891 346.877 81.8974 346.821 83.0038C346.936 84.0897 346.874 85.1871 346.638 86.2532V86.2532Z" fill="white"/>
<path d="M393.785 57.4715C393.785 57.5683 392.547 56.7506 390.439 55.8791C389.206 55.3753 387.932 54.9829 386.63 54.7063C385.033 54.3756 383.408 54.2062 381.777 54.2006C380.146 54.2177 378.521 54.3943 376.925 54.7278C375.622 55.0108 374.347 55.4105 373.116 55.9221C370.964 56.8044 369.834 57.6221 369.77 57.5253C370.007 57.2837 370.274 57.074 370.566 56.9013C370.885 56.6711 371.219 56.4626 371.566 56.2772C372.016 56.0126 372.479 55.772 372.954 55.5563C374.191 54.9844 375.481 54.5374 376.806 54.2221C378.438 53.8534 380.104 53.6586 381.777 53.6411C383.446 53.6465 385.109 53.8342 386.737 54.2006C388.066 54.5098 389.361 54.9532 390.6 55.524C391.077 55.7321 391.54 55.9692 391.988 56.2342C392.339 56.4183 392.677 56.6268 392.999 56.8582C393.29 57.0233 393.554 57.23 393.785 57.4715V57.4715Z" fill="white"/>
<path d="M375.181 70.146C375.117 70.146 374.999 69.8448 375.031 69.3176C375.095 68.6388 375.353 67.9928 375.773 67.4562C376.196 66.9152 376.763 66.5049 377.409 66.2726C377.914 66.122 378.237 66.1543 378.248 66.2726C378.259 66.391 377.086 66.703 376.214 67.8435C375.755 68.5539 375.406 69.3303 375.181 70.146V70.146Z" fill="white"/>
<path d="M369.685 85.4459C369.685 85.4997 369.513 85.5104 369.373 85.3813C369.289 85.296 369.224 85.1933 369.183 85.0803C369.142 84.9673 369.126 84.8467 369.136 84.727C369.146 84.6072 369.182 84.4911 369.242 84.3867C369.301 84.2823 369.383 84.1921 369.481 84.1224C369.642 84.0256 369.772 84.0471 369.804 84.1224C369.836 84.1977 369.707 84.4775 369.696 84.7788C369.685 85.08 369.772 85.306 369.685 85.4459Z" fill="white"/>
<path d="M257.215 25.2793C268.939 18.3952 271.746 1.40748 263.484 -12.6638C255.222 -26.735 239.02 -32.5613 227.295 -25.6772C215.571 -18.7931 212.764 -1.8054 221.026 12.2659C229.289 26.3371 245.491 32.1634 257.215 25.2793Z" fill="#00A572"/>
<g opacity="0.2">
<path d="M257.215 25.2788C268.939 18.3947 271.746 1.40699 263.484 -12.6643C255.222 -26.7355 239.02 -32.5618 227.295 -25.6777C215.571 -18.7936 212.764 -1.80589 221.026 12.2654C229.289 26.3366 245.491 32.1629 257.215 25.2788Z" fill="black"/>
</g>
<path d="M253.092 27.6953C264.816 20.8112 267.623 3.82349 259.361 -10.2478C251.099 -24.319 234.896 -30.1453 223.172 -23.2612C211.448 -16.3771 208.641 0.610617 216.903 14.6819C225.165 28.7531 241.368 34.5794 253.092 27.6953Z" fill="#00A572"/>
<g opacity="0.1">
<path d="M233.663 -26.1514C229.975 -26.1168 226.36 -25.123 223.173 -23.2678C211.455 -16.3817 208.647 0.607514 216.911 14.6809C220.036 20.1171 224.63 24.5621 230.166 27.5063C235.134 22.2662 238.933 16.0319 241.313 9.21511C243.648 2.42587 244.046 -4.55705 241.313 -11.3033C239.43 -16.0159 237.354 -22.1488 233.663 -26.1514Z" fill="white"/>
</g>
<path d="M253.523 -7.45131C259.871 3.3082 257.827 16.3379 248.993 21.5348C240.16 26.7316 227.819 22.1804 221.47 11.3671C215.122 0.553762 217.167 -12.433 226 -17.6298C234.834 -22.8266 247.175 -18.2646 253.523 -7.45131Z" fill="#00A572"/>
<g opacity="0.2">
<path d="M253.523 -7.45131C259.871 3.3082 257.827 16.3379 248.993 21.5348C240.16 26.7316 227.819 22.1804 221.47 11.3671C215.122 0.553762 217.167 -12.433 226 -17.6298C234.834 -22.8266 247.175 -18.2646 253.523 -7.45131Z" fill="black"/>
</g>
<path d="M254.579 -7.44075C260.777 3.11432 258.883 15.7567 250.275 20.7814C241.668 25.8061 229.736 21.3409 223.538 10.7858C217.341 0.230777 219.234 -12.4009 227.842 -17.4363C236.45 -22.4718 248.382 -17.9958 254.579 -7.44075Z" fill="#00A572"/>
<g opacity="0.2">
<path d="M254.579 -7.44075C260.777 3.11432 258.883 15.7567 250.275 20.7814C241.668 25.8061 229.736 21.3409 223.538 10.7858C217.341 0.230777 219.234 -12.4009 227.842 -17.4363C236.45 -22.4718 248.382 -17.9958 254.579 -7.44075Z" fill="white"/>
</g>
<path d="M237.094 -19.6526C237.272 -19.6835 237.454 -19.6835 237.632 -19.6526C238.143 -19.5905 238.649 -19.4971 239.149 -19.3728C241.003 -18.9473 242.793 -18.2818 244.475 -17.3931C246.976 -16.0836 249.247 -14.3756 251.199 -12.3361C253.603 -9.82916 255.474 -6.86066 256.698 -3.61016C257.956 -0.382824 258.601 3.05064 258.602 6.51452C258.603 9.36334 257.861 12.1632 256.45 14.6379C255.476 16.28 254.219 17.737 252.738 18.9417C252.211 19.3506 251.77 19.6304 251.479 19.8348C251.189 20.0392 251.027 20.1253 251.017 20.1038C251.006 20.0823 251.576 19.6196 252.598 18.7696C253.987 17.5288 255.171 16.0763 256.106 14.4658C257.441 12.0373 258.134 9.30758 258.118 6.53604C258.083 3.13736 257.434 -0.227037 256.203 -3.39498C255 -6.59363 253.171 -9.52002 250.823 -12.0026C248.921 -14.0237 246.713 -15.7337 244.281 -17.0703C242.008 -18.2404 239.592 -19.1085 237.094 -19.6526Z" fill="#38382A"/>
<path d="M260.034 -8.90381C260.328 -8.54653 260.581 -8.15665 260.787 -7.74179C261.076 -7.28565 261.328 -6.80712 261.54 -6.31077C261.865 -5.6717 262.152 -5.01426 262.401 -4.34178C262.725 -3.53386 263.002 -2.70754 263.229 -1.8671C263.504 -0.904163 263.726 0.0727619 263.896 1.05948C264.274 3.31966 264.411 5.61348 264.305 7.90253C264.184 10.1898 263.823 12.4581 263.229 14.6703C262.95 15.6305 262.62 16.5751 262.239 17.5C261.931 18.3146 261.572 19.1088 261.164 19.8779C260.841 20.5184 260.481 21.1399 260.088 21.7393C259.817 22.2074 259.515 22.6567 259.184 23.0842C258.932 23.4724 258.64 23.8331 258.312 24.1601C258.215 24.0848 259.388 22.5355 260.798 19.6949C261.176 18.9254 261.51 18.1351 261.798 17.3279C262.153 16.4779 262.412 15.5203 262.713 14.5304C263.29 12.3512 263.651 10.1203 263.789 7.87025C263.889 5.6189 263.77 3.36314 263.434 1.1348C263.24 0.123408 263.079 -0.855705 262.82 -1.73798C262.615 -2.57144 262.367 -3.39382 262.078 -4.20191C260.97 -7.17153 259.926 -8.85001 260.034 -8.90381Z" fill="#38382A"/>
<path d="M219.008 17.3172C219.008 17.3172 218.761 17.102 218.406 16.6609C217.914 16.027 217.458 15.366 217.039 14.6812C214.237 10.1397 212.658 4.95034 212.456 -0.382143C212.408 -1.18481 212.408 -1.98961 212.456 -2.79228C212.456 -3.36253 212.542 -3.67455 212.585 -3.66379C212.628 -3.65303 212.649 -2.40493 212.811 -0.435944C213.018 2.17918 213.502 4.76506 214.253 7.27861C215.03 9.78032 216.061 12.1959 217.33 14.4875C218.406 16.2305 219.084 17.2634 219.008 17.3172Z" fill="white"/>
<path d="M225.935 23.7297C225.838 23.8481 224.859 23.2348 223.783 22.3525C222.707 21.4702 221.889 20.6632 221.986 20.5449C222.083 20.4265 223.062 21.0398 224.138 21.9221C225.214 22.8044 226.021 23.6006 225.935 23.7297Z" fill="white"/>
<path d="M236.964 9.80696C236.964 9.88228 236.964 9.97911 236.771 10.0114C236.672 10.0272 236.571 10.0177 236.477 9.98383C236.383 9.94997 236.299 9.89281 236.233 9.81771C236.158 9.75186 236.102 9.66753 236.069 9.57313C236.037 9.47873 236.031 9.37757 236.05 9.27974C236.05 9.1291 236.179 9.06455 236.243 9.08607C236.308 9.10759 236.48 9.30126 236.631 9.43037C236.781 9.55948 236.911 9.66709 236.964 9.80696Z" fill="white"/>
<path d="M176.443 153.341C187.374 137.406 180.736 113.855 161.615 100.738C142.495 87.6216 118.133 89.9067 107.202 105.842C96.27 121.777 102.908 145.328 122.029 158.445C141.149 171.561 165.511 169.276 176.443 153.341Z" fill="#00A572"/>
<g opacity="0.2">
<path d="M176.443 153.341C187.374 137.406 180.736 113.855 161.615 100.738C142.495 87.6216 118.133 89.9067 107.202 105.842C96.27 121.777 102.908 145.328 122.029 158.445C141.149 171.561 165.511 169.276 176.443 153.341Z" fill="black"/>
</g>
<path d="M179.707 149.556C190.722 133.71 184.238 110.15 165.225 96.9339C146.212 83.7174 121.869 85.849 110.854 101.695C99.8395 117.541 106.323 141.101 125.337 154.317C144.35 167.534 168.693 165.402 179.707 149.556Z" fill="#00A572"/>
<g opacity="0.1">
<path d="M105.893 114.841C106.311 109.62 108.084 104.599 111.036 100.273C121.967 84.3379 146.327 82.0568 165.446 95.1727C172.828 100.161 178.662 107.121 182.285 115.261C174.34 121.797 165.093 126.565 155.16 129.248C145.305 131.895 135.374 131.744 126.11 127.204C119.686 124.03 111.208 120.479 105.893 114.841Z" fill="white"/>
</g>
<path d="M130.414 144.871C145.101 154.952 163.704 153.371 171.957 141.352C180.209 129.334 174.98 111.43 160.304 101.316C145.628 91.2024 127.004 92.8163 118.751 104.835C110.498 116.853 115.717 134.789 130.414 144.871Z" fill="#00A572"/>
<g opacity="0.2">
<path d="M130.414 144.871C145.101 154.952 163.704 153.371 171.957 141.352C180.209 129.334 174.98 111.43 160.304 101.316C145.628 91.2024 127.004 92.8163 118.751 104.835C110.498 116.853 115.717 134.789 130.414 144.871Z" fill="black"/>
</g>
<path d="M130.328 146.356C144.671 156.2 162.768 154.737 170.763 143.128C178.757 131.518 173.603 114.077 159.271 104.232C144.94 94.3871 126.821 95.8504 118.837 107.46C110.854 119.069 115.986 136.521 130.328 146.356Z" fill="#00A572"/>
<g opacity="0.2">
<path d="M130.328 146.356C144.671 156.2 162.768 154.737 170.763 143.128C178.757 131.518 173.603 114.077 159.271 104.232C144.94 94.3871 126.821 95.8504 118.837 107.46C110.854 119.069 115.986 136.521 130.328 146.356Z" fill="white"/>
</g>
<path d="M114.758 120.361C114.758 120.361 114.909 121.437 115.264 123.266C115.785 125.881 116.608 128.426 117.717 130.851C119.365 134.449 121.569 137.764 124.248 140.675C125.834 142.383 127.57 143.946 129.434 145.344C131.451 146.825 133.614 148.094 135.89 149.132C140.267 151.203 144.985 152.461 149.813 152.844C153.755 153.139 157.707 152.42 161.293 150.756C163.68 149.586 165.861 148.034 167.749 146.162C168.405 145.495 168.825 144.925 169.223 144.57C169.388 144.376 169.567 144.197 169.761 144.032C169.631 144.251 169.48 144.456 169.309 144.645C168.986 145.022 168.545 145.613 167.899 146.313C165.604 148.78 162.782 150.698 159.643 151.923C156.504 153.149 153.129 153.651 149.77 153.393C144.873 153.031 140.084 151.773 135.642 149.68C133.337 148.617 131.145 147.323 129.101 145.818C127.216 144.392 125.465 142.797 123.872 141.051C121.188 138.09 119.008 134.71 117.416 131.045C116.324 128.581 115.547 125.989 115.103 123.33C114.978 122.618 114.892 121.9 114.844 121.179C114.783 120.91 114.754 120.636 114.758 120.361V120.361Z" fill="#38382A"/>
<path d="M127.703 153.952C127.866 154.009 128.021 154.085 128.166 154.178L129.414 154.91C130.057 155.305 130.722 155.664 131.404 155.986C132.211 156.384 133.083 156.889 134.137 157.298L135.751 157.976C136.321 158.213 136.924 158.396 137.548 158.611C138.87 159.094 140.217 159.507 141.583 159.848C147.851 161.328 154.365 161.442 160.681 160.182C162.054 159.892 163.412 159.533 164.748 159.106C165.372 158.912 165.996 158.751 166.566 158.536L168.202 157.912C169.278 157.535 170.16 157.062 170.967 156.696C171.666 156.378 172.345 156.019 173.001 155.62L174.281 154.931C174.572 154.781 174.733 154.705 174.744 154.727C174.621 154.845 174.484 154.946 174.335 155.028L173.119 155.814C172.476 156.231 171.808 156.609 171.118 156.943C170.22 157.427 169.297 157.861 168.353 158.245L166.706 158.912C166.136 159.138 165.512 159.31 164.888 159.526C163.629 159.967 162.241 160.268 160.778 160.602C154.396 161.933 147.797 161.819 141.465 160.268C140.087 159.93 138.729 159.517 137.397 159.031C136.773 158.794 136.16 158.611 135.59 158.364L133.976 157.632C133.045 157.238 132.136 156.793 131.254 156.298C130.57 155.942 129.912 155.539 129.285 155.093L128.09 154.275C127.948 154.184 127.818 154.076 127.703 153.952V153.952Z" fill="#38382A"/>
<path d="M168.976 98.4113C168.911 98.4974 167.545 97.3353 165.156 95.7537C158.924 91.5967 151.839 88.8906 144.423 87.8347C141.582 87.4258 139.796 87.372 139.807 87.2752C140.219 87.2067 140.638 87.1887 141.055 87.2214C142.198 87.236 143.341 87.3115 144.476 87.4474C148.224 87.8697 151.905 88.7626 155.429 90.1049C158.955 91.46 162.299 93.2491 165.382 95.4309C166.315 96.1014 167.213 96.8197 168.072 97.5828C168.398 97.8303 168.701 98.1076 168.976 98.4113Z" fill="white"/>
<path d="M177.369 108.869C176.469 108.057 175.697 107.114 175.077 106.072C174.31 105.133 173.693 104.08 173.248 102.952C174.151 103.761 174.924 104.705 175.54 105.749C176.3 106.693 176.917 107.745 177.369 108.869Z" fill="white"/>
<path d="M117.125 114.163C117.181 113.793 117.282 113.432 117.426 113.087C117.566 112.681 117.728 112.282 117.91 111.893C118.138 111.365 118.397 110.852 118.685 110.354C119.406 109.052 120.256 107.826 121.224 106.696C122.42 105.318 123.763 104.073 125.227 102.984C126.71 101.917 128.3 101.009 129.972 100.273C131.358 99.6838 132.8 99.2368 134.276 98.9384C134.889 98.7878 135.47 98.7447 135.965 98.6694C136.392 98.6047 136.824 98.5724 137.256 98.5726C137.613 98.5233 137.975 98.5233 138.332 98.5726C138.332 98.6802 136.772 98.7232 134.34 99.3042C132.925 99.6573 131.542 100.132 130.209 100.724C128.582 101.467 127.032 102.368 125.582 103.414C124.149 104.482 122.827 105.689 121.633 107.019C120.666 108.112 119.798 109.289 119.04 110.537C117.738 112.721 117.265 114.206 117.125 114.163Z" fill="white"/>
<path d="M141.754 113.216C141.032 112.612 140.214 112.136 139.333 111.807C138.4 111.643 137.446 111.643 136.514 111.807C136.514 111.742 136.75 111.505 137.288 111.322C137.998 111.11 138.752 111.098 139.468 111.288C140.184 111.478 140.834 111.862 141.345 112.398C141.711 112.85 141.818 113.184 141.754 113.216Z" fill="white"/>
<path d="M156.537 123.126C156.397 123.072 156.354 122.782 156.118 122.534C155.881 122.287 155.612 122.19 155.569 122.039C155.526 121.889 155.655 121.867 155.859 121.846C155.988 121.847 156.115 121.876 156.232 121.929C156.348 121.983 156.452 122.061 156.537 122.158C156.622 122.253 156.686 122.366 156.723 122.489C156.76 122.612 156.77 122.741 156.752 122.868C156.72 123.072 156.602 123.148 156.537 123.126Z" fill="white"/>
<g opacity="0.2">
<path d="M157.916 90.9009C157.916 90.9009 142.272 132.669 160.208 165.4L168.224 161.397L164.544 94.387L157.916 90.9009Z" fill="black"/>
</g>
<path d="M318.389 78.3137C324.854 55.8422 314.915 33.2583 296.189 27.8712C277.464 22.4841 257.044 36.3338 250.579 58.8054C244.114 81.2769 254.053 103.861 272.778 109.248C291.504 114.635 311.924 100.785 318.389 78.3137Z" fill="#00A572"/>
<g opacity="0.2">
<path d="M318.389 78.3142C324.854 55.8427 314.915 33.2588 296.189 27.8717C277.464 22.4846 257.044 36.3343 250.579 58.8058C244.114 81.2774 254.053 103.861 272.778 109.248C291.504 114.635 311.924 100.786 318.389 78.3142Z" fill="black"/>
</g>
<path d="M324.965 80.2019C331.43 57.7304 321.491 35.1465 302.766 29.7594C284.04 24.3723 263.62 38.222 257.155 60.6935C250.69 83.1651 260.629 105.749 279.354 111.136C298.08 116.523 318.5 102.673 324.965 80.2019Z" fill="#00A572"/>
<g opacity="0.1">
<path d="M287.267 29.4969C292.392 28.2337 297.759 28.3301 302.836 29.7766C321.568 35.1564 331.499 57.7513 325.033 80.2172C322.618 88.8699 317.82 96.6696 311.185 102.726C302.411 97.1903 294.912 89.8558 289.182 81.207C283.523 72.5994 280.499 63.0665 281.898 52.7374C282.812 45.6146 283.501 36.3722 287.267 29.4969Z" fill="white"/>
</g>
<path d="M266.285 62.507C261.314 79.7868 268.738 97.0773 282.876 101.144C297.014 105.211 312.497 94.5058 317.457 77.2368C322.417 59.9678 315.004 42.6773 300.866 38.6102C286.728 34.5431 271.256 45.238 266.285 62.507Z" fill="#00A572"/>
<g opacity="0.2">
<path d="M266.285 62.507C261.314 79.7868 268.738 97.0773 282.876 101.144C297.014 105.211 312.497 94.5058 317.457 77.2368C322.417 59.9678 315.004 42.6773 300.866 38.6102C286.728 34.5431 271.256 45.238 266.285 62.507Z" fill="black"/>
</g>
<path d="M264.823 62.9052C259.981 79.7653 267.147 96.6147 280.833 100.563C294.519 104.512 309.55 94.0432 314.392 77.1831C319.234 60.3229 312.079 43.4736 298.393 39.5248C284.707 35.5761 269.676 46.0558 264.823 62.9052Z" fill="#00A572"/>
<g opacity="0.2">
<path d="M264.823 62.9052C259.981 79.7653 267.147 96.6147 280.833 100.563C294.519 104.512 309.55 94.0432 314.392 77.1831C319.234 60.3229 312.079 43.4736 298.393 39.5248C284.707 35.5761 269.676 46.0558 264.823 62.9052Z" fill="white"/>
</g>
<path d="M278.346 48.9175C278.346 48.9175 277.636 49.5523 276.42 50.7466C274.7 52.4298 273.187 54.3116 271.911 56.3523C270.005 59.3703 268.589 62.6713 267.715 66.1327C267.211 68.1729 266.89 70.2542 266.758 72.3517C266.637 74.602 266.745 76.8587 267.08 79.0871C267.664 83.4135 269.035 87.5963 271.126 91.4283C272.839 94.5539 275.33 97.1849 278.356 99.0675C280.419 100.301 282.668 101.192 285.017 101.704C285.845 101.865 286.512 101.951 286.953 102.037C287.182 102.067 287.409 102.114 287.631 102.177C287.402 102.205 287.171 102.205 286.943 102.177C286.491 102.123 285.867 102.08 284.974 101.94C281.973 101.426 279.128 100.24 276.651 98.4697C274.175 96.6994 272.131 94.3914 270.674 91.7188C268.522 87.8238 267.113 83.5622 266.521 79.1517C266.189 76.8832 266.085 74.5872 266.209 72.2979C266.353 70.1662 266.691 68.0521 267.22 65.982C268.111 62.4819 269.565 59.1497 271.524 56.1156C272.846 54.0736 274.423 52.208 276.215 50.5637C276.829 49.9612 277.388 49.5953 277.732 49.2941C277.926 49.1516 278.131 49.0257 278.346 48.9175V48.9175Z" fill="#38382A"/>
<path d="M259.379 75.2998C259.508 75.2998 259.379 77.8283 260.024 81.8201C260.11 82.3258 260.207 82.896 260.304 83.3802C260.401 83.8644 260.573 84.4561 260.713 85.0479C260.971 86.2099 261.402 87.4043 261.789 88.6739C263.773 94.1355 266.906 99.1073 270.978 103.253C271.862 104.153 272.793 105.008 273.764 105.814C274.227 106.19 274.647 106.578 275.088 106.89L276.379 107.826C279.693 110.139 282.038 111.054 281.974 111.226C281.416 111.037 280.873 110.806 280.349 110.537C279.711 110.264 279.093 109.948 278.498 109.59C277.702 109.171 276.93 108.707 276.185 108.202L274.862 107.299C274.41 106.976 273.969 106.588 273.495 106.223C272.499 105.425 271.548 104.573 270.644 103.673C266.463 99.4914 263.281 94.4192 261.337 88.8353C260.928 87.5441 260.509 86.3283 260.261 85.1555C260.132 84.5637 259.971 84.0042 259.874 83.4555C259.777 82.9068 259.712 82.3796 259.626 81.8739C259.485 80.9649 259.391 80.049 259.347 79.1302C259.285 78.4398 259.264 77.7465 259.282 77.0536C259.26 76.4673 259.293 75.8802 259.379 75.2998Z" fill="#38382A"/>
<path d="M323.01 84.6282C322.913 84.6282 323.569 82.9175 324.333 80.1308C326.341 72.8435 326.676 65.1966 325.312 57.7618C324.796 54.9213 324.29 53.1998 324.387 53.1675C324.578 53.5442 324.726 53.9412 324.828 54.351C325.178 55.4474 325.472 56.5606 325.71 57.6865C327.301 65.1803 326.96 72.9554 324.72 80.2814C324.279 81.6694 323.881 82.7776 323.558 83.5093C323.412 83.8992 323.228 84.274 323.01 84.6282V84.6282Z" fill="white"/>
<path d="M317.975 90.5356C318.433 88.4024 319.256 86.3642 320.406 84.5103C320.272 85.5984 319.948 86.6546 319.449 87.6305C319.125 88.6752 318.626 89.6574 317.975 90.5356Z" fill="white"/>
<path d="M291.432 40.0303C291.789 39.9808 292.151 39.9808 292.508 40.0303C292.943 40.0273 293.378 40.0525 293.809 40.1056C294.384 40.1594 294.955 40.242 295.52 40.3531C296.993 40.6358 298.434 41.061 299.824 41.6227C303.263 43.0062 306.332 45.1724 308.787 47.9493C309.781 49.0744 310.661 50.2963 311.412 51.5968C311.706 52.0905 311.972 52.6006 312.208 53.1246C312.41 53.5077 312.579 53.9072 312.714 54.3189C312.869 54.6624 312.981 55.0238 313.047 55.3949C312.94 55.3949 312.402 53.9423 311.068 51.8119C310.285 50.5654 309.392 49.3915 308.399 48.3043C307.178 46.9818 305.83 45.7818 304.375 44.7214C302.892 43.6976 301.314 42.8185 299.663 42.0961C298.307 41.5184 296.903 41.0611 295.466 40.7297C293.013 40.1486 291.432 40.1379 291.432 40.0303Z" fill="white"/>
<path d="M300.178 63.3033C300.609 62.4421 300.809 61.4843 300.76 60.5228C300.711 59.5613 300.414 58.6289 299.898 57.8159C299.952 57.8159 300.264 57.945 300.609 58.4077C301.037 59.0241 301.283 59.7484 301.319 60.498C301.355 61.2476 301.18 61.9922 300.813 62.6469C300.522 63.1311 300.178 63.3463 300.178 63.3033Z" fill="white"/>
<path d="M296.949 81.8523C296.949 81.6909 297.1 81.5188 297.164 81.2283C297.229 80.9378 297.164 80.7011 297.294 80.5827C297.423 80.4644 297.476 80.5827 297.595 80.7011C297.66 80.7999 297.704 80.9116 297.722 81.0286C297.741 81.1457 297.734 81.2654 297.703 81.3796C297.671 81.4938 297.615 81.5999 297.539 81.6908C297.463 81.7816 297.368 81.855 297.261 81.9061C297.046 81.9707 296.949 81.9276 296.949 81.8523Z" fill="white"/>
<g opacity="0.3">
<path d="M253.547 51.0376C253.547 51.0376 286.223 59.2041 295.703 75.5477C305.182 91.8914 308.173 105.136 308.173 105.136L301.05 108.364L250.545 57.9237L253.547 51.0376Z" fill="black"/>
</g>
<path d="M334.374 269.467C335.93 254.066 326.785 240.53 313.948 239.233C301.112 237.936 289.445 249.371 287.889 264.772C286.333 280.173 295.478 293.71 308.315 295.006C321.151 296.303 332.818 284.869 334.374 269.467Z" fill="#00A572"/>
<g opacity="0.2">
<path d="M334.374 269.467C335.93 254.066 326.785 240.53 313.948 239.233C301.112 237.936 289.445 249.371 287.889 264.772C286.333 280.173 295.478 293.71 308.315 295.006C321.151 296.303 332.818 284.869 334.374 269.467Z" fill="black"/>
</g>
<path d="M331.851 267.599C333.412 252.12 324.22 238.518 311.319 237.216C298.419 235.915 286.695 247.408 285.134 262.886C283.572 278.365 292.765 291.968 305.665 293.269C318.566 294.57 330.29 283.077 331.851 267.599Z" fill="#00A572"/>
<g opacity="0.1">
<path d="M321.018 240.91C318.163 238.867 314.826 237.599 311.334 237.23C298.423 235.929 286.706 247.42 285.146 262.903C284.504 268.843 285.54 274.844 288.137 280.225C294.924 278.984 301.369 276.31 307.041 272.382C312.669 268.476 316.897 263.322 318.586 256.598C319.748 251.96 321.61 246.075 321.018 240.91Z" fill="white"/>
</g>
<path d="M325.786 266.475C324.58 278.375 315.715 287.219 305.988 286.24C296.261 285.261 289.332 274.813 290.494 262.924C291.656 251.035 300.565 242.18 310.303 243.159C320.04 244.138 326.98 254.586 325.786 266.475Z" fill="#00A572"/>
<g opacity="0.2">
<path d="M325.786 266.475C324.58 278.375 315.715 287.219 305.988 286.24C296.261 285.261 289.332 274.813 290.494 262.924C291.656 251.035 300.565 242.18 310.303 243.159C320.04 244.138 326.98 254.586 325.786 266.475Z" fill="black"/>
</g>
<path d="M326.582 267.088C325.41 278.698 316.824 287.327 307.387 286.38C297.951 285.433 291.248 275.244 292.442 263.634C293.637 252.025 302.201 243.396 311.637 244.343C321.073 245.289 327.755 255.479 326.582 267.088Z" fill="#00A572"/>
<g opacity="0.2">
<path d="M326.582 267.088C325.41 278.698 316.824 287.327 307.387 286.38C297.951 285.433 291.248 275.244 292.442 263.634C293.637 252.025 302.201 243.396 311.637 244.343C321.073 245.289 327.755 255.479 326.582 267.088Z" fill="white"/>
</g>
<path d="M320.007 247.839C320.007 247.839 320.158 247.947 320.405 248.184C320.765 248.521 321.103 248.88 321.417 249.26C322.601 250.631 323.603 252.15 324.397 253.779C327.076 259.206 327.666 265.429 326.054 271.263C325.199 274.457 323.761 277.466 321.815 280.139C320.49 281.984 318.763 283.503 316.765 284.582C314.767 285.661 312.549 286.272 310.281 286.369C309.646 286.369 309.14 286.369 308.806 286.369C308.636 286.374 308.466 286.356 308.301 286.315C308.954 286.232 309.611 286.185 310.27 286.175C312.041 285.995 313.773 285.538 315.402 284.82C317.789 283.698 319.851 281.987 321.395 279.849C323.282 277.216 324.678 274.263 325.516 271.134C326.383 268.016 326.62 264.757 326.215 261.547C325.894 258.94 325.168 256.399 324.063 254.015C322.982 251.791 321.619 249.715 320.007 247.839Z" fill="#38382A"/>
<path d="M285.277 266.109C285.206 265.835 285.177 265.552 285.191 265.269C285.165 264.502 285.183 263.733 285.245 262.967C285.638 257.884 287.352 252.992 290.216 248.775C290.647 248.136 291.114 247.521 291.615 246.935C291.97 246.526 292.174 246.311 292.207 246.344C292.239 246.376 291.561 247.355 290.55 248.99C287.921 253.243 286.247 258.015 285.643 262.978C285.576 264.027 285.453 265.072 285.277 266.109V266.109Z" fill="white"/>
<path d="M315.811 246.376C315.811 246.473 314.789 246.107 313.142 245.86C310.992 245.547 308.802 245.642 306.687 246.14C304.576 246.652 302.583 247.561 300.812 248.819C299.456 249.787 298.736 250.562 298.66 250.486C298.585 250.411 298.789 250.25 299.101 249.895C299.547 249.382 300.041 248.914 300.575 248.496C302.334 247.106 304.376 246.118 306.558 245.602C308.738 245.076 311.006 245.028 313.207 245.462C313.869 245.594 314.518 245.789 315.144 246.043C315.585 246.215 315.822 246.333 315.811 246.376Z" fill="white"/>
<path d="M158.252 234.217C162.065 218.644 150.011 202.312 131.328 197.736C112.645 193.161 94.4076 202.076 90.5942 217.648C86.7808 233.22 98.8352 249.553 117.518 254.128C136.202 258.704 154.439 249.789 158.252 234.217Z" fill="#00A572"/>
<g opacity="0.2">
<path d="M158.252 234.217C162.065 218.644 150.011 202.312 131.328 197.736C112.645 193.161 94.4076 202.076 90.5942 217.648C86.7808 233.22 98.8352 249.553 117.518 254.128C136.202 258.704 154.439 249.789 158.252 234.217Z" fill="black"/>
</g>
<path d="M156.928 239.675C160.741 224.102 148.687 207.77 130.004 203.194C111.32 198.619 93.0834 207.534 89.27 223.106C85.4566 238.678 97.511 255.011 116.194 259.586C134.877 264.162 153.114 255.247 156.928 239.675Z" fill="#00A572"/>
<g opacity="0.1">
<path d="M95.4253 211.859C92.4408 215.008 90.3272 218.879 89.2924 223.092C85.4835 238.661 97.5449 254.994 116.191 259.567C123.357 261.382 130.889 261.144 137.925 258.878C137.569 250.353 135.401 242.001 131.566 234.379C127.747 226.847 122.173 220.757 114.222 217.53C108.735 215.302 101.849 212.021 95.4253 211.859Z" fill="white"/>
</g>
<path d="M127.552 210.418C141.916 213.936 151.223 226.31 148.34 238.07C145.456 249.83 131.49 256.501 117.137 252.982C102.784 249.464 93.4662 237.091 96.3498 225.33C99.2333 213.57 113.188 206.899 127.552 210.418Z" fill="#00A572"/>
<g opacity="0.2">
<path d="M127.552 210.418C141.916 213.936 151.223 226.31 148.34 238.07C145.456 249.83 131.49 256.501 117.137 252.982C102.784 249.464 93.4662 237.091 96.3498 225.33C99.2333 213.57 113.188 206.899 127.552 210.418Z" fill="black"/>
</g>
<path d="M128.434 209.546C142.422 212.979 151.546 224.986 148.759 236.37C145.972 247.753 132.329 254.198 118.342 250.766C104.354 247.334 95.2196 235.326 98.0063 223.943C100.793 212.559 114.415 206.114 128.434 209.546Z" fill="#00A572"/>
<g opacity="0.2">
<path d="M128.434 209.546C142.422 212.979 151.546 224.986 148.759 236.37C145.972 247.753 132.329 254.198 118.342 250.766C104.354 247.334 95.2196 235.326 98.0063 223.943C100.793 212.559 114.415 206.114 128.434 209.546Z" fill="white"/>
</g>
<path d="M103.742 214.28C103.889 214.128 104.051 213.991 104.226 213.872C104.699 213.483 105.195 213.123 105.711 212.796C107.595 211.587 109.627 210.629 111.758 209.944C114.92 208.906 118.232 208.394 121.56 208.427C123.522 208.448 125.478 208.65 127.402 209.03C129.468 209.458 131.484 210.1 133.417 210.945C137.181 212.528 140.615 214.801 143.542 217.648C145.565 219.582 147.125 221.948 148.105 224.57C149.085 227.191 149.459 230 149.201 232.787C149.115 233.572 148.997 234.175 148.932 234.584C148.908 234.795 148.865 235.004 148.803 235.208C148.777 234.997 148.777 234.784 148.803 234.573C148.803 234.153 148.911 233.497 148.964 232.776C149.067 230.569 148.812 228.36 148.211 226.234C147.253 223.105 145.512 220.272 143.154 218.003C140.253 215.251 136.877 213.045 133.191 211.494C131.293 210.671 129.318 210.04 127.295 209.611C125.402 209.229 123.479 209.02 121.549 208.987C118.269 208.935 115.001 209.4 111.866 210.364C109.753 211.01 107.723 211.902 105.819 213.022C104.474 213.818 103.774 214.324 103.742 214.28Z" fill="#38382A"/>
<path d="M131.672 203.726C132.212 203.787 132.745 203.899 133.265 204.059C133.885 204.198 134.496 204.378 135.094 204.597C135.898 204.857 136.688 205.159 137.461 205.501C138.407 205.898 139.33 206.347 140.226 206.846C141.261 207.404 142.266 208.015 143.239 208.675C145.458 210.214 147.509 211.981 149.361 213.947C151.172 215.947 152.773 218.129 154.138 220.457C154.722 221.48 155.253 222.532 155.73 223.609C156.145 224.541 156.504 225.497 156.806 226.471C157.095 227.267 157.336 228.079 157.527 228.903C157.702 229.514 157.835 230.135 157.925 230.764C158.048 231.294 158.116 231.835 158.13 232.378C158.011 232.378 157.71 230.097 156.441 226.6C156.099 225.648 155.708 224.714 155.268 223.803C154.837 222.802 154.192 221.791 153.654 220.715C150.94 216.116 147.271 212.153 142.894 209.095C141.818 208.427 140.915 207.76 139.946 207.255C139.075 206.738 138.173 206.274 137.246 205.867C133.921 204.328 131.64 203.844 131.672 203.726Z" fill="#38382A"/>
<path d="M120.138 259.912C119.778 259.952 119.415 259.933 119.062 259.858C118.121 259.749 117.187 259.587 116.264 259.374C110.117 258.002 104.428 255.067 99.7484 250.852C99.0378 250.226 98.3659 249.558 97.7364 248.851C97.4851 248.606 97.2647 248.331 97.0801 248.033C97.1554 247.969 98.156 249.023 100.007 250.551C104.766 254.534 110.347 257.415 116.35 258.986C118.685 259.643 120.148 259.912 120.138 259.912Z" fill="white"/>
<path d="M101.214 219.176C101.311 219.23 100.676 220.37 100.073 222.35C99.7303 223.507 99.4855 224.691 99.3418 225.89C99.2008 227.361 99.2008 228.841 99.3418 230.312C99.5005 231.772 99.7996 233.213 100.235 234.616C100.601 235.771 101.069 236.89 101.634 237.962C102.602 239.78 103.43 240.781 103.355 240.846C103.28 240.91 103.097 240.641 102.71 240.189C102.173 239.552 101.694 238.868 101.279 238.145C100.656 237.076 100.141 235.948 99.7399 234.777C99.2681 233.333 98.9472 231.844 98.7823 230.334C98.6507 228.821 98.6832 227.299 98.8792 225.793C99.0382 224.565 99.3267 223.356 99.7399 222.189C100.008 221.399 100.346 220.636 100.751 219.908C100.999 219.434 101.182 219.154 101.214 219.176Z" fill="white"/>
<path d="M114.254 234.938C114.254 235.003 113.996 235.143 113.522 235.164C112.893 235.169 112.276 234.989 111.747 234.648C111.219 234.315 110.803 233.832 110.553 233.26C110.37 232.819 110.38 232.517 110.445 232.496C110.51 232.474 110.961 233.497 112.059 234.174C113.156 234.852 114.232 234.777 114.254 234.938Z" fill="white"/>
<path d="M128.552 238.597C128.617 238.597 128.627 238.758 128.552 238.909C128.48 238.995 128.391 239.064 128.289 239.111C128.188 239.159 128.077 239.183 127.966 239.183C127.854 239.183 127.743 239.159 127.642 239.111C127.541 239.064 127.451 238.995 127.379 238.909C127.282 238.758 127.293 238.64 127.379 238.597C127.465 238.554 127.734 238.597 127.982 238.597C128.229 238.597 128.401 238.532 128.552 238.597Z" fill="white"/>
<path d="M336.536 193.91C343.183 180.478 333.413 162.088 314.714 152.834C296.015 143.58 275.468 146.967 268.821 160.399C262.174 173.831 271.944 192.221 290.643 201.475C309.342 210.728 329.889 207.342 336.536 193.91Z" fill="#00A572"/>
<g opacity="0.2">
<path d="M336.536 193.91C343.183 180.478 333.413 162.088 314.714 152.834C296.015 143.58 275.468 146.967 268.821 160.399C262.174 173.831 271.944 192.221 290.643 201.475C309.342 210.728 329.889 207.342 336.536 193.91Z" fill="black"/>
</g>
<path d="M339.422 188.082C346.07 174.651 336.3 156.26 317.601 147.007C298.902 137.753 278.355 141.14 271.708 154.571C265.06 168.003 274.83 186.393 293.529 195.647C312.228 204.901 332.775 201.514 339.422 188.082Z" fill="#00A572"/>
<g opacity="0.1">
<path d="M327.765 156.954C326.516 158.186 325.608 159.721 325.129 161.408C323.935 166.465 325.258 171.899 328.217 176.611C331.139 181.119 334.977 184.961 339.482 187.887C344.302 177.924 340.16 165.292 330.078 155.673C329.246 155.978 328.466 156.41 327.765 156.954V156.954Z" fill="white"/>
</g>
<path d="M297.295 189.555C282.963 182.443 275.335 168.455 280.359 158.32C285.384 148.185 301.093 145.731 315.467 152.843C329.842 159.955 337.417 173.932 332.403 184.046C327.389 194.16 311.669 196.667 297.295 189.555Z" fill="#00A572"/>
<g opacity="0.2">
<path d="M297.295 189.555C282.963 182.443 275.335 168.455 280.359 158.32C285.384 148.185 301.093 145.731 315.467 152.843C329.842 159.955 337.417 173.932 332.403 184.046C327.389 194.16 311.669 196.667 297.295 189.555Z" fill="black"/>
</g>
<path d="M296.23 190.136C282.242 183.196 274.775 169.607 279.628 159.783C284.48 149.96 299.802 147.636 313.821 154.576C327.841 161.516 335.287 175.094 330.423 184.918C325.56 194.741 310.26 197.076 296.23 190.136Z" fill="#00A572"/>
<g opacity="0.2">
<path d="M296.173 190.254C282.186 183.304 274.708 169.725 279.571 159.902C284.435 150.078 299.735 147.744 313.765 154.684C327.795 161.623 335.219 175.213 330.367 185.036C325.514 194.86 310.193 197.194 296.173 190.254Z" fill="white"/>
</g>
<path d="M312.088 145.291C312.516 145.374 312.932 145.512 313.326 145.699C314.111 145.99 315.23 146.474 316.553 147.13C320.069 148.896 323.369 151.063 326.388 153.586C329.4 156.103 332.108 158.963 334.457 162.108C335.176 163.054 335.844 164.039 336.459 165.056C336.709 165.413 336.921 165.795 337.093 166.196C337.007 166.196 336.017 164.69 334.145 162.355C329.309 156.237 323.257 151.189 316.371 147.529C313.767 146.087 312.013 145.377 312.088 145.291Z" fill="white"/>
<path d="M298.305 142.827C299.663 142.685 301.034 142.725 302.383 142.945C303.744 142.987 305.094 143.211 306.396 143.612C305.042 143.767 303.673 143.731 302.329 143.504C300.963 143.457 299.61 143.229 298.305 142.827V142.827Z" fill="white"/>
<path d="M310.938 169.37C312.092 169.178 313.278 169.372 314.311 169.922C315.344 170.473 316.167 171.349 316.651 172.415C315.838 171.679 314.968 171.01 314.047 170.414C313.041 169.98 312.001 169.631 310.938 169.37Z" fill="white"/>
<path d="M280.951 179.108C281.026 179.054 281.887 180.184 283.469 181.948C285.52 184.195 287.82 186.202 290.323 187.931C292.833 189.66 295.529 191.103 298.36 192.234C300.512 193.095 301.932 193.472 301.911 193.569C301.568 193.552 301.228 193.494 300.899 193.396C299.993 193.181 299.099 192.919 298.22 192.611C292.368 190.562 287.168 186.989 283.157 182.26C282.547 181.555 281.982 180.811 281.468 180.033C281.248 179.754 281.074 179.441 280.951 179.108V179.108Z" fill="white"/>
<g opacity="0.2">
<path d="M274.141 188.426L276.755 191.417C281.212 188.643 285.322 185.349 288.999 181.604C294.218 176.052 308.905 161.57 307.495 143.225L300.921 142.149L273.549 187.705L274.141 188.447" fill="black"/>
</g>
<path d="M17.8086 92.7529C25.3051 91.2699 29.7089 81.6089 27.6447 71.1743C25.5805 60.7398 17.83 53.4832 10.3334 54.9662C2.8369 56.4492 -1.56687 66.1102 0.497328 76.5447C2.56153 86.9793 10.312 94.2359 17.8086 92.7529Z" fill="#00A572"/>
<g opacity="0.2">
<path d="M17.8086 92.7534C25.3051 91.2704 29.7089 81.6094 27.6447 71.1748C25.5805 60.7403 17.83 53.4837 10.3334 54.9667C2.8369 56.4497 -1.56687 66.1107 0.497328 76.5452C2.56153 86.9797 10.312 94.2364 17.8086 92.7534Z" fill="black"/>
</g>
<path d="M21.0644 92.1133C28.5609 90.6303 32.9647 80.9692 30.9005 70.5347C28.8363 60.1002 21.0858 52.8435 13.5893 54.3265C6.09276 55.8095 1.68899 65.4706 3.75318 75.9051C5.81738 86.3396 13.5679 93.5962 21.0644 92.1133Z" fill="#00A572"/>
<g opacity="0.1">
<path d="M30.0173 77.7423C29.1335 77.6176 28.2324 77.7252 27.4028 78.0543C26.1843 78.6543 25.0979 79.4915 24.2074 80.5169C23.3168 81.5424 22.64 82.7353 22.2167 84.0258C21.2947 86.6064 20.9281 89.3526 21.1407 92.0847C26.6604 90.9334 30.48 85.3385 31.2439 78.2803C30.8672 78.0351 30.4528 77.8533 30.0173 77.7423V77.7423Z" fill="white"/>
</g>
<path d="M7.39247 75.5365C5.81082 67.5206 9.10323 60.1181 14.7627 58.9991C20.4222 57.8801 26.2862 63.4643 27.8786 71.4909C29.471 79.5175 26.1678 86.9093 20.5083 88.0283C14.8488 89.1472 8.98488 83.5631 7.39247 75.5365Z" fill="#00A572"/>
<g opacity="0.2">
<path d="M7.39247 75.5365C5.81082 67.5206 9.10323 60.1181 14.7627 58.9991C20.4222 57.8801 26.2862 63.4643 27.8786 71.4909C29.471 79.5175 26.1678 86.9093 20.5083 88.0283C14.8488 89.1472 8.98488 83.5631 7.39247 75.5365Z" fill="black"/>
</g>
<path d="M6.83315 75.2893C5.28378 67.4671 8.46859 60.226 13.9452 59.15C19.4218 58.0741 25.1243 63.5291 26.6629 71.3513C28.2015 79.1734 25.0275 86.4146 19.5509 87.4905C14.0743 88.5665 8.37176 83.1114 6.83315 75.2893Z" fill="#00A572"/>
<g opacity="0.2">
<path d="M6.7687 75.3C5.21933 67.4779 8.40414 60.2367 13.8807 59.1608C19.3573 58.0848 25.0598 63.5399 26.5985 71.362C28.1371 79.1842 24.963 86.4253 19.4864 87.5013C14.0098 88.5772 8.3073 83.1222 6.7687 75.3Z" fill="white"/>
</g>
<path d="M29.8663 67.7793C30.2402 68.523 30.4909 69.3224 30.6087 70.1464C31.0284 72.1149 31.1983 74.1284 31.1144 76.1394C31.0365 78.1487 30.7076 80.1403 30.1353 82.0679C29.9438 82.8825 29.6281 83.6627 29.1992 84.3812C29.895 81.6724 30.3487 78.9071 30.5549 76.1179C30.5659 73.3237 30.3355 70.5338 29.8663 67.7793V67.7793Z" fill="white"/>
<path d="M26.5854 61.4415C26.7145 61.3555 27.317 62.0764 27.9196 63.0555C28.5221 64.0346 28.9094 64.8738 28.7803 64.9599C28.6512 65.046 28.0487 64.3143 27.4461 63.346C26.8436 62.3776 26.4563 61.5276 26.5854 61.4415Z" fill="white"/>
<path d="M19.7639 74.7728C19.8607 74.6544 20.5493 75.2462 20.7215 76.2791C20.8936 77.312 20.431 78.0759 20.3019 78.0759C20.1728 78.0759 20.3019 77.2905 20.1728 76.4297C20.0436 75.569 19.6455 74.8481 19.7639 74.7728Z" fill="white"/>
<path d="M6.54241 65.6919C6.17592 67.8455 6.00307 70.0277 6.02595 72.2121C6.23074 74.3954 6.63043 76.5559 7.22026 78.6679C6.18688 76.6906 5.59146 74.514 5.47449 72.286C5.35753 70.0581 5.72176 67.831 6.54241 65.7564V65.6919Z" fill="white"/>
<path d="M111.077 68.2022C125.496 59.8534 132.325 44.6894 126.328 34.3322C120.332 23.9751 103.781 22.347 89.3612 30.6958C74.9415 39.0445 68.1131 54.2086 74.1097 64.5657C80.1063 74.9228 96.6569 76.5509 111.077 68.2022Z" fill="#00A572"/>
<g opacity="0.2">
<path d="M111.077 68.2022C125.496 59.8534 132.325 44.6894 126.328 34.3322C120.332 23.9751 103.781 22.347 89.3612 30.6958C74.9415 39.0445 68.1131 54.2086 74.1097 64.5657C80.1063 74.9228 96.6569 76.5509 111.077 68.2022Z" fill="black"/>
</g>
<path d="M108.475 63.71C122.895 55.3613 129.723 40.1972 123.727 29.8401C117.73 19.483 101.179 17.8548 86.7596 26.2036C72.3399 34.5523 65.5116 49.7164 71.5081 60.0735C77.5047 70.4306 94.0554 72.0587 108.475 63.71Z" fill="#00A572"/>
<g opacity="0.1">
<path d="M79.1671 34.6719C80.2286 35.5865 81.0334 36.7621 81.5019 38.0826C82.0504 40.1375 82.1854 42.2807 81.8992 44.3882C81.6129 46.4956 80.911 48.5252 79.8341 50.3592C77.7424 54.1037 74.8823 57.3634 71.4417 59.9244C67.1379 52.2421 69.731 41.956 77.2519 33.7681C77.9336 33.9673 78.5799 34.2723 79.1671 34.6719V34.6719Z" fill="white"/>
</g>
<path d="M105.152 59.053C116.234 52.5973 121.549 41.1062 116.987 33.284C112.425 25.4618 99.772 24.3321 88.722 30.7448C77.672 37.1574 72.3245 48.7024 76.8865 56.5675C81.4485 64.4327 94.0694 65.4764 105.152 59.053Z" fill="#00A572"/>
<g opacity="0.2">
<path d="M105.152 59.053C116.234 52.5973 121.549 41.1062 116.987 33.284C112.425 25.4618 99.772 24.3321 88.722 30.7448C77.672 37.1574 72.3245 48.7024 76.8865 56.5675C81.4485 64.4327 94.0694 65.4764 105.152 59.053Z" fill="black"/>
</g>
<path d="M106.034 59.4618C116.794 53.1998 122.055 41.9884 117.676 34.4137C113.297 26.839 100.966 25.8061 90.1531 32.0466C79.3398 38.2871 74.1214 49.52 78.5328 57.0947C82.9442 64.6694 95.2101 65.7238 106.034 59.4618Z" fill="#00A572"/>
<g opacity="0.2">
<path d="M106.088 59.5482C116.848 53.2862 122.109 42.0748 117.73 34.5001C113.351 26.9254 101.02 25.8925 90.2071 32.133C79.3938 38.3736 74.2292 49.6065 78.533 57.1812C82.8368 64.7558 95.264 65.8103 106.088 59.5482Z" fill="white"/>
</g>
<path d="M91.0567 24.5474C91.0567 24.6334 89.7763 25.3005 87.7535 26.5594C82.4765 29.8752 77.9238 34.2229 74.3687 39.3417C73.0022 41.2999 72.2706 42.5695 72.2168 42.5695C72.3109 42.2322 72.4522 41.9098 72.6364 41.6119C73.0638 40.7649 73.5379 39.9423 74.0567 39.148C77.4767 33.8529 82.1093 29.4489 87.5706 26.3012C88.6466 25.7094 89.4858 25.2252 90.0991 24.9993C90.3978 24.8085 90.7196 24.6566 91.0567 24.5474V24.5474Z" fill="white"/>
<path d="M101.902 21.8682C100.907 22.321 99.8396 22.5942 98.7493 22.6751C97.6949 22.9381 96.6037 23.0218 95.5215 22.9226C96.5223 22.4772 97.5924 22.2079 98.6848 22.1264C99.7355 21.8631 100.823 21.7759 101.902 21.8682V21.8682Z" fill="white"/>
<path d="M93.2626 43.6457C93.2626 43.807 92.079 43.9254 90.874 44.7216C89.6689 45.5178 89.0126 46.4862 88.8619 46.4109C88.7113 46.3355 89.2063 45.0874 90.5727 44.2589C90.9456 43.9602 91.3814 43.7498 91.8473 43.6436C92.3131 43.5374 92.797 43.5381 93.2626 43.6457V43.6457Z" fill="white"/>
<path d="M117.632 49.8754C117.234 50.8164 116.705 51.6966 116.061 52.49C113.128 56.4893 109.164 59.6168 104.592 61.5387C103.669 61.9821 102.687 62.2901 101.676 62.4533C101.676 62.3672 102.752 61.9799 104.43 61.1836C108.826 59.0942 112.694 56.042 115.749 52.2533C116.922 50.8007 117.546 49.8324 117.632 49.8754Z" fill="white"/>
<path d="M424.098 208.1C435.378 195.983 437.467 179.592 428.764 171.49C420.061 163.388 403.861 166.644 392.581 178.761C381.301 190.879 379.212 207.27 387.915 215.372C396.618 223.473 412.818 220.218 424.098 208.1Z" fill="#00A572"/>
<g opacity="0.2">
<path d="M424.1 208.1C435.38 195.983 437.469 179.592 428.766 171.49C420.062 163.388 403.863 166.644 392.583 178.761C381.303 190.879 379.214 207.27 387.917 215.372C396.62 223.473 412.82 220.218 424.1 208.1Z" fill="black"/>
</g>
<path d="M420.317 204.583C431.597 192.466 433.686 176.075 424.983 167.973C416.279 159.871 400.08 163.127 388.799 175.244C377.519 187.362 375.43 203.753 384.134 211.855C392.837 219.956 409.037 216.701 420.317 204.583Z" fill="#00A572"/>
<g opacity="0.1">
<path d="M384.101 185.477C385.378 186.042 386.489 186.923 387.329 188.038C388.445 189.833 389.194 191.833 389.532 193.92C389.87 196.007 389.791 198.14 389.298 200.196C388.398 204.361 386.627 208.288 384.101 211.72C377.732 205.683 377.258 195.15 382.035 185.176C382.735 185.172 383.432 185.273 384.101 185.477Z" fill="white"/>
</g>
<path d="M415.808 201.111C424.415 191.804 426.169 179.29 419.606 173.136C413.042 166.982 400.68 169.618 392.008 178.925C383.335 188.232 381.646 200.745 388.21 206.899C394.773 213.054 407.136 210.418 415.808 201.111Z" fill="#00A572"/>
<g opacity="0.2">
<path d="M415.808 201.111C424.415 191.804 426.169 179.29 419.606 173.136C413.042 166.982 400.68 169.618 392.008 178.925C383.335 188.232 381.646 200.745 388.21 206.899C394.773 213.054 407.136 210.418 415.808 201.111Z" fill="black"/>
</g>
<path d="M416.756 201.24C425.213 192.159 426.913 179.99 420.554 174.061C414.195 168.133 402.177 170.704 393.72 179.796C385.263 188.888 383.552 201.057 389.922 206.975C396.292 212.892 408.299 210.332 416.756 201.24Z" fill="#00A572"/>
<g opacity="0.2">
<path d="M416.83 201.315C425.287 192.223 426.987 180.054 420.629 174.137C414.27 168.219 402.251 170.78 393.794 179.871C385.337 188.963 383.627 201.121 389.996 207.05C396.366 212.978 408.374 210.418 416.83 201.315Z" fill="white"/>
</g>
<path d="M392.397 172.415C392.461 172.49 391.396 173.491 389.847 175.288C387.826 177.615 386.042 180.138 384.521 182.819C383.037 185.511 381.815 188.34 380.874 191.266C380.142 193.514 379.798 194.956 379.733 194.935C379.727 194.572 379.767 194.211 379.851 193.859C380.018 192.93 380.234 192.011 380.497 191.104C382.206 185.076 385.331 179.542 389.61 174.965C390.428 174.104 391.127 173.426 391.633 172.996C391.867 172.776 392.123 172.582 392.397 172.415V172.415Z" fill="white"/>
<path d="M401.932 166.724C401.121 167.462 400.185 168.048 399.167 168.456C398.233 169.011 397.216 169.411 396.154 169.639C396.975 168.925 397.909 168.354 398.919 167.95C399.846 167.371 400.865 166.956 401.932 166.724V166.724Z" fill="white"/>
<path d="M400.048 189.974C400.101 190.125 398.972 190.588 398.079 191.664C397.186 192.74 396.82 193.88 396.658 193.816C396.63 193.345 396.704 192.874 396.877 192.435C397.05 191.996 397.317 191.601 397.659 191.276C398.703 190.071 400.026 189.802 400.048 189.974Z" fill="white"/>
<path d="M424.989 188.77C424.888 189.783 424.642 190.776 424.257 191.718C422.63 196.368 419.77 200.489 415.983 203.639C415.237 204.326 414.396 204.902 413.487 205.35C413.433 205.275 414.358 204.586 415.725 203.338C417.495 201.721 419.086 199.917 420.47 197.958C421.833 195.974 422.98 193.85 423.891 191.621C424.59 189.857 424.913 188.748 424.989 188.77Z" fill="white"/>
<path d="M258.216 258.416C257.603 247.656 250.964 232.808 240.129 218.294C229.294 203.779 216.921 193.192 206.775 189.555L202.137 183.347L192.809 190.308C182.695 197.84 188.085 222.178 204.849 244.622C221.612 267.066 243.389 279.138 253.503 271.596L262.832 264.624L258.216 258.416Z" fill="#00A572"/>
<g opacity="0.3">
<path d="M258.216 258.416C257.603 247.656 250.964 232.808 240.129 218.294C229.294 203.779 216.921 193.192 206.775 189.555L202.137 183.347L192.809 190.308C182.695 197.84 188.085 222.178 204.849 244.622C221.612 267.066 243.389 279.138 253.503 271.596L262.832 264.624L258.216 258.416Z" fill="black"/>
</g>
<path d="M213.564 238.145C196.801 215.701 191.41 191.395 201.502 183.853C211.595 176.31 233.383 188.393 250.146 210.837C266.909 233.282 272.3 257.587 262.197 265.13C252.094 272.672 230.327 260.589 213.564 238.145Z" fill="#00A572"/>
<g opacity="0.1">
<path d="M222.193 201.444C223.368 206.566 224.899 211.599 226.776 216.508C234.049 233.594 249.306 247.043 267.253 250.938C266.78 239.963 260.733 225.04 250.146 210.859C239.999 197.27 228.024 187.5 217.867 183.551C219.158 189.544 220.611 195.516 222.193 201.444Z" fill="white"/>
</g>
<path d="M221.537 233.368C208.625 216.152 201.578 199.68 208.367 194.633C215.565 189.254 233.222 197.786 246.101 215.076C258.98 232.367 263.929 250.421 257.14 255.489C255.472 256.726 253.665 258.082 248.597 257.426C240.581 256.35 231.253 246.387 221.537 233.368Z" fill="#00A572"/>
<g opacity="0.3">
<path d="M221.537 233.368C208.625 216.152 201.578 199.68 208.367 194.633C215.565 189.254 233.222 197.786 246.101 215.076C258.98 232.367 263.929 250.421 257.14 255.489C255.472 256.726 253.665 258.082 248.597 257.426C240.581 256.35 231.253 246.387 221.537 233.368Z" fill="black"/>
</g>
<path d="M218.169 234.712C205.601 217.874 200.953 200.121 207.689 195.053C214.424 189.985 230.165 199.529 242.733 216.368C255.3 233.206 259.948 250.949 253.212 256.016C246.477 261.084 230.736 251.54 218.169 234.712Z" fill="#00A572"/>
<g opacity="0.2">
<path d="M218.169 234.712C205.601 217.874 200.953 200.121 207.689 195.053C214.424 189.985 230.165 199.529 242.733 216.368C255.3 233.206 259.948 250.949 253.212 256.016C246.477 261.084 230.736 251.54 218.169 234.712Z" fill="white"/>
</g>
<path d="M244.335 257.06C244.137 256.992 243.946 256.906 243.765 256.802L242.205 255.984C241.516 255.64 240.698 255.177 239.773 254.618C238.848 254.058 237.761 253.434 236.631 252.66C230.617 248.773 225.257 243.957 220.75 238.393C216.306 232.758 212.543 226.618 209.539 220.102C208.387 217.616 207.484 215.583 206.935 214.152L206.279 212.516C206.192 212.331 206.13 212.136 206.096 211.935C206.214 212.102 206.311 212.283 206.386 212.473L207.129 214.065C207.753 215.475 208.7 217.465 209.894 219.929C212.987 226.34 216.776 232.391 221.191 237.973C225.659 243.532 230.936 248.389 236.846 252.38C237.922 253.176 238.998 253.822 239.934 254.403C240.87 254.984 241.645 255.479 242.312 255.855L243.819 256.759C244.001 256.841 244.174 256.942 244.335 257.06V257.06Z" fill="#38382A"/>
<path d="M206.915 228.225C206.812 228.095 206.718 227.959 206.635 227.816C206.474 227.536 206.226 227.138 205.936 226.6C205.333 225.524 204.505 223.975 203.536 222.016C200.996 216.914 198.977 211.568 197.511 206.06C196.706 203.016 196.258 199.889 196.177 196.742C196.091 194.152 196.519 191.57 197.436 189.146C198.075 187.526 199.051 186.059 200.298 184.842C200.627 184.504 200.987 184.198 201.374 183.928C201.497 183.819 201.634 183.729 201.782 183.659C201.782 183.712 201.266 184.1 200.448 184.993C199.287 186.236 198.386 187.699 197.801 189.297C196.971 191.683 196.606 194.207 196.725 196.731C196.836 199.839 197.295 202.925 198.092 205.931C199.55 211.402 201.505 216.729 203.934 221.844C204.838 223.824 205.613 225.406 206.151 226.503C206.452 227.055 206.707 227.631 206.915 228.225V228.225Z" fill="#38382A"/>
<path d="M227.68 190.739C226.425 190.161 225.207 189.507 224.033 188.78C221.169 187.112 218.14 185.745 214.995 184.702C211.848 183.699 208.511 183.438 205.247 183.939C203.909 184.224 202.594 184.601 201.309 185.068C201.597 184.828 201.925 184.639 202.277 184.509C203.203 184.082 204.174 183.761 205.171 183.551C208.499 182.926 211.93 183.136 215.156 184.164C218.345 185.221 221.391 186.667 224.226 188.468C225.302 189.135 226.195 189.695 226.787 190.104C227.108 190.28 227.408 190.493 227.68 190.739V190.739Z" fill="white"/>
<path d="M229.498 212.903C228.554 212.936 227.609 212.904 226.669 212.806C225.724 212.89 224.775 212.912 223.828 212.871C224.714 212.449 225.682 212.23 226.663 212.23C227.644 212.23 228.613 212.449 229.498 212.871V212.903Z" fill="white"/>
<path d="M190.279 199.378C190.087 197.727 190.406 196.055 191.194 194.591C191.806 193.044 192.885 191.728 194.282 190.825C193.319 192.094 192.455 193.436 191.699 194.838C191.114 196.314 190.639 197.832 190.279 199.378Z" fill="white"/>
<g opacity="0.3">
<path d="M192.85 190.308L190.01 193.536C190.01 193.536 204.535 204.876 223.289 205.64C242.043 206.404 245.238 204.737 245.238 204.737L239.019 196.527L192.85 190.308Z" fill="black"/>
</g>
<path d="M237.675 19.2C228.056 15.5848 212.509 15.6494 195.649 19.5013C178.789 23.3532 164.758 30.0779 157.668 37.5127L150.459 39.1697L152.944 50.0152C155.624 61.7539 178.95 66.445 205.031 60.4735C231.112 54.502 250.06 40.138 247.37 28.3887L244.895 17.5431L237.675 19.2Z" fill="#00A572"/>
<g opacity="0.3">
<path d="M237.675 19.2C228.056 15.5848 212.509 15.6494 195.649 19.5013C178.789 23.3532 164.758 30.0779 157.668 37.5127L150.459 39.1697L152.944 50.0152C155.624 61.7539 178.95 66.445 205.031 60.4735C231.112 54.502 250.06 40.138 247.37 28.3887L244.895 17.5431L237.675 19.2Z" fill="black"/>
</g>
<path d="M202.718 50.3918C176.637 56.3633 153.321 51.6937 150.631 39.9551C147.941 28.2165 166.91 13.8633 192.991 7.89179C219.072 1.92027 242.388 6.60066 245.067 18.3285C247.746 30.0564 228.799 44.4203 202.718 50.3918Z" fill="#00A572"/>
<g opacity="0.1">
<path d="M173.99 28.6901C178.913 29.6323 183.896 30.2327 188.902 30.4869C206.634 30.7344 224.269 22.6002 234.609 8.42996C224.839 4.59958 209.464 4.12616 192.991 7.89199C177.207 11.5072 164.048 18.1996 156.699 25.5053C162.456 26.7319 168.201 27.7755 173.99 28.6901Z" fill="white"/>
</g>
<path d="M201.622 41.5906C181.587 46.1742 164.501 46.0128 162.694 38.1261C160.779 29.7552 175.046 17.6292 195.091 13.0457C215.136 8.46212 232.846 11.1197 234.642 19.0064C235.084 20.9431 235.568 23.0412 233.039 27.2267C229.048 33.8223 216.749 38.1261 201.622 41.5906Z" fill="#00A572"/>
<g opacity="0.3">
<path d="M201.622 41.5906C181.587 46.1742 164.501 46.0128 162.694 38.1261C160.779 29.7552 175.046 17.6292 195.091 13.0457C215.136 8.46212 232.846 11.1197 234.642 19.0064C235.084 20.9431 235.568 23.0412 233.039 27.2267C229.048 33.8223 216.749 38.1261 201.622 41.5906Z" fill="black"/>
</g>
<path d="M201.492 45.0444C181.942 49.5204 164.619 46.7659 162.811 38.8792C161.004 30.9925 175.4 20.9754 194.961 16.4994C214.522 12.0235 231.834 14.7779 233.641 22.6646C235.449 30.5514 221.053 40.5685 201.492 45.0444Z" fill="#00A572"/>
<g opacity="0.2">
<path d="M201.492 45.0444C181.942 49.5204 164.619 46.7659 162.811 38.8792C161.004 30.9925 175.4 20.9754 194.961 16.4994C214.522 12.0235 231.834 14.7779 233.641 22.6646C235.449 30.5514 221.053 40.5685 201.492 45.0444Z" fill="white"/>
</g>
<path d="M231.113 30.8203C231.113 30.8203 230.983 30.9709 230.682 31.2184L229.37 32.2944C228.799 32.757 228.078 33.295 227.218 33.8868C226.357 34.4785 225.41 35.1887 224.302 35.8773C218.572 39.6302 212.281 42.4484 205.666 44.2266C199.045 45.9377 192.244 46.8623 185.406 46.9811C182.792 46.9811 180.672 46.9811 179.209 46.9811L177.52 46.8735C177.321 46.8715 177.123 46.8535 176.928 46.8197C177.121 46.7721 177.321 46.7539 177.52 46.7659H179.198C180.661 46.7659 182.781 46.7013 185.385 46.6153C192.176 46.3568 198.918 45.3611 205.494 43.6456C212.056 41.872 218.316 39.1266 224.065 35.5007C225.141 34.8336 226.152 34.1665 227.013 33.5855C227.874 33.0045 228.616 32.5096 229.165 32.0792C229.714 31.6488 230.177 31.369 230.542 31.1108C230.721 30.9931 230.912 30.8957 231.113 30.8203V30.8203Z" fill="#38382A"/>
<path d="M191.506 52.3608C190.916 52.4971 190.315 52.58 189.709 52.6083C188.547 52.7159 186.869 52.845 184.782 52.9311C179.343 53.1873 173.892 52.8881 168.513 52.038C165.541 51.562 162.635 50.7424 159.852 49.5956C157.554 48.6758 155.465 47.3037 153.708 45.5608C152.53 44.3764 151.62 42.9527 151.04 41.3861C150.877 40.9674 150.751 40.5354 150.663 40.095C150.621 39.944 150.596 39.7888 150.588 39.6323C150.652 39.6323 150.782 40.2456 151.244 41.3108C151.883 42.805 152.816 44.1552 153.988 45.2811C155.743 46.9417 157.804 48.2462 160.056 49.1222C162.81 50.2263 165.679 51.0167 168.61 51.4785C173.946 52.324 179.348 52.6841 184.749 52.5545C186.826 52.5545 188.504 52.4576 189.666 52.4146C190.278 52.3533 190.892 52.3353 191.506 52.3608V52.3608Z" fill="#38382A"/>
<path d="M166.761 19.7593C165.771 20.628 164.733 21.4398 163.652 22.1909C161.088 24.0444 158.726 26.1612 156.604 28.5067C154.517 30.8716 153.001 33.6839 152.171 36.727C151.901 38.0043 151.718 39.2984 151.622 40.6004C151.526 40.2503 151.486 39.8871 151.504 39.5245C151.486 38.5522 151.58 37.5811 151.784 36.6302C152.519 33.4744 154.032 30.5525 156.184 28.1302C158.325 25.7475 160.754 23.6403 163.415 21.8574C164.415 21.1688 165.244 20.62 165.825 20.265C166.112 20.0531 166.427 19.8828 166.761 19.7593V19.7593Z" fill="white"/>
<path d="M186.827 26.7211C186.496 27.5664 186.104 28.3863 185.654 29.1743C185.362 30.0336 185.002 30.8683 184.578 31.6705C184.466 30.7244 184.658 29.7672 185.127 28.9376C185.783 27.5066 186.719 26.6243 186.827 26.7211Z" fill="white"/>
<path d="M159.873 55.7609C158.349 55.3043 157.006 54.3826 156.032 53.1249C154.92 51.9861 154.187 50.5319 153.934 48.9609C154.68 50.2864 155.521 51.5558 156.451 52.759C157.515 53.8435 158.659 54.8469 159.873 55.7609Z" fill="white"/>
<path d="M28.7463 213.904C29.0046 209.331 31.8343 203.005 36.4394 196.829C41.0444 190.653 46.3166 186.144 50.6204 184.595L52.6001 181.959L56.5704 184.929C60.8742 188.156 58.5824 198.486 51.4489 208.029C44.3153 217.573 35.0514 222.716 30.7476 219.51L26.7773 216.54L28.7463 213.904Z" fill="#00A572"/>
<g opacity="0.3">
<path d="M28.7463 213.904C29.0046 209.331 31.8343 203.005 36.4394 196.829C41.0444 190.653 46.3166 186.144 50.6204 184.595L52.6001 181.959L56.5704 184.929C60.8742 188.156 58.5824 198.486 51.4489 208.029C44.3153 217.573 35.0514 222.716 30.7476 219.51L26.7773 216.54L28.7463 213.904Z" fill="black"/>
</g>
<path d="M47.7596 205.275C54.8932 195.731 57.185 185.381 52.8919 182.174C48.5989 178.968 39.3242 184.1 32.1906 193.655C25.0571 203.209 22.7653 213.549 27.0584 216.755C31.3514 219.962 40.6261 214.829 47.7596 205.275Z" fill="#00A572"/>
<g opacity="0.1">
<path d="M44.1012 189.663C43.6005 191.837 42.9461 193.972 42.1429 196.054C40.6297 199.679 38.2818 202.896 35.2903 205.443C32.2988 207.989 28.7483 209.793 24.9277 210.708C25.1214 206.039 27.6929 199.691 32.2012 193.654C36.505 187.877 41.6157 183.713 45.9195 182.034C45.3815 184.595 44.7575 187.134 44.1012 189.663Z" fill="white"/>
</g>
<path d="M44.3691 203.241C49.8457 195.903 52.8583 188.91 49.964 186.758C46.9083 184.466 39.3874 188.103 33.9108 195.441C28.4343 202.779 26.3792 210.504 29.2089 212.656C29.712 213.065 30.3033 213.353 30.9363 213.494C31.5693 213.636 32.2267 213.629 32.8564 213.473C36.2564 213.022 40.2267 208.782 44.3691 203.241Z" fill="#00A572"/>
<g opacity="0.3">
<path d="M44.3691 203.241C49.8457 195.903 52.8583 188.91 49.964 186.758C46.9083 184.466 39.3874 188.103 33.9108 195.441C28.4343 202.779 26.3792 210.504 29.2089 212.656C29.712 213.065 30.3033 213.353 30.9363 213.494C31.5693 213.636 32.2267 213.629 32.8564 213.473C36.2564 213.022 40.2267 208.782 44.3691 203.241Z" fill="black"/>
</g>
<path d="M45.8023 203.811C51.182 196.656 53.1402 189.092 50.2567 186.94C47.3732 184.789 40.6915 188.845 35.344 196.011C29.9966 203.177 27.963 210.719 30.8896 212.882C33.8162 215.044 40.4548 210.977 45.8023 203.811Z" fill="#00A572"/>
<g opacity="0.2">
<path d="M45.8023 203.811C51.182 196.656 53.1402 189.092 50.2567 186.94C47.3732 184.789 40.6915 188.845 35.344 196.011C29.9966 203.177 27.963 210.719 30.8896 212.882C33.8162 215.044 40.4548 210.977 45.8023 203.811Z" fill="white"/>
</g>
<path d="M34.666 213.323C34.666 213.237 35.8818 212.537 37.7863 211.171C40.2676 209.462 42.4921 207.408 44.3926 205.07C46.256 202.722 47.8714 200.187 49.2129 197.506C49.7295 196.359 50.3041 195.239 50.9344 194.149C50.8857 194.49 50.784 194.82 50.6331 195.129C50.4179 195.742 50.0521 196.613 49.5572 197.679C48.2977 200.467 46.7005 203.091 44.8015 205.49C42.8777 207.874 40.5771 209.927 37.9907 211.569C37.2111 212.069 36.4067 212.528 35.5806 212.946C35.2954 213.115 34.9874 213.242 34.666 213.323V213.323Z" fill="#38382A"/>
<path d="M50.5566 201.057C50.883 200.109 51.2749 199.185 51.7294 198.292C52.7223 196.109 53.5355 193.849 54.1611 191.535C54.8799 189.266 54.9322 186.839 54.3117 184.541C53.9212 183.643 53.387 182.814 52.7301 182.088C52.7301 182.088 52.9883 182.217 53.3971 182.561C53.6488 182.762 53.8667 183.002 54.0427 183.271C54.3042 183.6 54.5212 183.962 54.6883 184.347C55.463 186.123 55.4199 188.866 54.6883 191.621C54.0667 193.974 53.1938 196.254 52.0845 198.421C51.6764 199.354 51.1638 200.239 50.5566 201.057V201.057Z" fill="#38382A"/>
<path d="M41.7559 185.101C41.7559 185.036 42.24 184.627 43.1654 184.025C44.3638 183.231 45.6628 182.602 47.028 182.152C48.4198 181.709 49.9028 181.635 51.3318 181.937C51.9352 182.025 52.4998 182.287 52.9565 182.69C52.9565 182.777 52.3002 182.475 51.2565 182.325C49.8832 182.15 48.4883 182.274 47.1679 182.69C45.8426 183.132 44.5604 183.694 43.3375 184.369C42.8522 184.695 42.3184 184.942 41.7559 185.101V185.101Z" fill="white"/>
<path d="M40.9803 194.537C40.9265 194.397 41.4538 194.096 42.1746 194.096C42.8955 194.096 43.4335 194.375 43.3905 194.515C43.3474 194.655 42.8095 194.644 42.1854 194.655C41.5614 194.666 41.0234 194.687 40.9803 194.537Z" fill="white"/>
<path d="M57.6582 188.78C57.4968 188.78 57.3785 187.887 56.9158 186.919C56.4532 185.951 55.8399 185.262 55.9582 185.144C56.0766 185.025 56.9158 185.574 57.4215 186.682C57.9272 187.791 57.8089 188.791 57.6582 188.78Z" fill="white"/>
<path d="M305.796 138.726C312.699 97.7845 285.105 58.9995 244.164 52.0969C203.223 45.1942 164.438 72.7879 157.535 113.729C150.633 154.67 178.226 193.455 219.168 200.358C260.109 207.26 298.894 179.667 305.796 138.726Z" fill="#00A572"/>
<g opacity="0.1">
<path d="M250.543 53.4687C240.986 50.9909 231.035 50.4197 221.258 51.7878C211.481 53.1558 202.069 56.4362 193.559 61.4418C185.05 66.4474 177.61 73.0801 171.663 80.9611C165.717 88.8421 161.382 97.8171 158.904 107.374C158.904 107.374 209.474 122.921 227.087 105.512C244.701 88.1035 250.543 53.4687 250.543 53.4687Z" fill="white"/>
</g>
<path d="M286.19 139.125C283.356 150.065 277.343 159.918 268.91 167.44C260.477 174.962 250.003 179.815 238.812 181.385C227.622 182.956 216.217 181.173 206.039 176.262C195.862 171.351 187.369 163.533 181.634 153.796C175.899 144.059 173.18 132.84 173.82 121.558C174.461 110.276 178.432 99.4369 185.231 90.4113C192.031 81.3857 201.354 74.5788 212.022 70.8511C222.69 67.1233 234.223 66.6422 245.164 69.4685C252.432 71.3474 259.259 74.6397 265.255 79.1575C271.25 83.6752 276.297 89.3299 280.107 95.7984C283.916 102.267 286.415 109.423 287.458 116.857C288.502 124.291 288.071 131.858 286.19 139.125V139.125Z" fill="#00A572"/>
<g opacity="0.2">
<path d="M286.19 139.125C283.356 150.065 277.343 159.918 268.91 167.44C260.477 174.962 250.003 179.815 238.812 181.385C227.622 182.956 216.217 181.173 206.039 176.262C195.862 171.351 187.369 163.533 181.634 153.796C175.899 144.059 173.18 132.84 173.82 121.558C174.461 110.276 178.432 99.4369 185.231 90.4113C192.031 81.3857 201.354 74.5788 212.022 70.8511C222.69 67.1233 234.223 66.6422 245.164 69.4685C252.432 71.3474 259.259 74.6397 265.255 79.1575C271.25 83.6752 276.297 89.3299 280.107 95.7984C283.916 102.267 286.415 109.423 287.458 116.857C288.502 124.291 288.071 131.858 286.19 139.125V139.125Z" fill="black"/>
</g>
<path d="M287.115 141.837C284.319 152.634 278.384 162.36 270.06 169.785C261.736 177.209 251.397 181.998 240.351 183.545C229.305 185.093 218.048 183.331 208.004 178.48C197.96 173.63 189.58 165.91 183.924 156.297C178.267 146.684 175.589 135.609 176.227 124.473C176.866 113.338 180.792 102.642 187.51 93.7377C194.227 84.8338 203.435 78.122 213.967 74.4513C224.5 70.7805 235.884 70.3158 246.681 73.1157C261.154 76.8692 273.545 86.2172 281.127 99.1041C288.71 111.991 290.864 127.362 287.115 141.837V141.837Z" fill="#00A572"/>
<g opacity="0.2">
<path d="M287.115 141.837C284.319 152.634 278.384 162.36 270.06 169.785C261.736 177.209 251.397 181.998 240.351 183.545C229.305 185.093 218.048 183.331 208.004 178.48C197.96 173.63 189.58 165.91 183.924 156.297C178.267 146.684 175.589 135.609 176.227 124.473C176.866 113.338 180.792 102.642 187.51 93.7377C194.227 84.8338 203.435 78.122 213.967 74.4513C224.5 70.7805 235.884 70.3158 246.681 73.1157C261.154 76.8692 273.545 86.2172 281.127 99.1041C288.71 111.991 290.864 127.362 287.115 141.837V141.837Z" fill="white"/>
</g>
<path d="M217.242 182.551C217.398 182.558 217.553 182.579 217.705 182.615L219.039 182.863L221.191 183.282C222.173 183.504 223.168 183.659 224.171 183.745L227.937 184.111C228.652 184.185 229.371 184.21 230.089 184.186H232.424C233.256 184.207 234.09 184.185 234.92 184.122L237.567 183.863C238.471 183.756 239.418 183.723 240.364 183.54L243.28 182.959C247.609 182.047 251.824 180.658 255.847 178.817L259.075 177.128C259.613 176.837 260.151 176.558 260.711 176.246C261.27 175.934 261.787 175.568 262.292 175.17C263.368 174.459 264.444 173.803 265.52 173.018C266.596 172.232 267.564 171.372 268.619 170.543L269.404 169.908C269.652 169.693 269.888 169.446 270.136 169.209L271.599 167.789L273.084 166.347C273.575 165.852 274.038 165.332 274.472 164.787C275.365 163.711 276.323 162.635 277.194 161.559L279.658 157.997C286.255 147.81 289.376 135.762 288.556 123.653C288.416 122.201 288.276 120.77 288.137 119.349C287.997 117.929 287.599 116.552 287.34 115.175C287.228 114.489 287.077 113.81 286.888 113.141C286.695 112.474 286.49 111.818 286.297 111.161C286.103 110.505 285.899 109.849 285.705 109.203C285.608 108.88 285.522 108.547 285.404 108.235L285.016 107.299L283.521 103.63C282.983 102.435 282.326 101.327 281.756 100.197L280.874 98.5189C280.551 97.9809 280.196 97.443 279.862 96.9588L277.872 93.9139C275.247 90.3651 272.238 87.1175 268.899 84.2303L266.639 82.3151C265.897 81.6911 265.09 81.2392 264.347 80.6689L262.195 79.1518C261.5 78.6966 260.781 78.2765 260.043 77.893L258.01 76.7525C257.389 76.3824 256.746 76.0518 256.084 75.7626L252.619 74.2562C251.704 73.8289 250.758 73.4693 249.79 73.1803L247.692 72.4917L246.39 72.0505C246.242 72.0101 246.097 71.9561 245.959 71.8892C246.113 71.9086 246.265 71.9447 246.411 71.9968L247.713 72.3733L249.865 73.0189C250.842 73.2788 251.798 73.6096 252.727 74.0088L256.224 75.4828C256.892 75.7578 257.54 76.0815 258.161 76.4512L260.226 77.5271C260.964 77.9109 261.682 78.331 262.378 78.786L264.595 80.2923C265.337 80.8303 266.155 81.3145 266.908 81.9278L269.2 83.843C272.583 86.749 275.632 90.022 278.292 93.6018L280.314 96.6575C280.648 97.1847 281.003 97.7335 281.337 98.2284L282.23 99.9177C282.811 101.058 283.467 102.177 284.016 103.371L285.543 107.073L285.931 108.009C286.049 108.332 286.135 108.665 286.243 108.988C286.437 109.644 286.641 110.301 286.845 110.968C287.05 111.635 287.244 112.291 287.448 112.958C287.652 113.625 287.749 114.335 287.911 115.024C288.169 116.412 288.502 117.811 288.718 119.231C288.933 120.651 289.008 122.125 289.148 123.535C289.985 135.758 286.832 147.923 280.164 158.202L277.668 161.796C276.785 162.936 275.817 164.001 274.913 165.088C274.44 165.604 274.031 166.164 273.514 166.659L272.008 168.111L270.523 169.542C270.276 169.779 270.039 170.027 269.792 170.253L268.995 170.877L265.854 173.373C264.778 174.147 263.702 174.815 262.626 175.525L261.023 176.601C260.474 176.913 259.947 177.192 259.366 177.483L256.062 179.215C251.999 181.05 247.745 182.429 243.377 183.325L240.44 183.896C239.493 184.068 238.535 184.089 237.621 184.197L234.952 184.444C234.092 184.541 233.252 184.444 232.445 184.444H230.1C229.381 184.461 228.662 184.428 227.948 184.347L224.182 183.939C223.177 183.835 222.181 183.659 221.202 183.411L219.05 182.938L217.716 182.637L217.242 182.551Z" fill="#38382A"/>
<path d="M160.853 144.311C160.76 144.106 160.695 143.889 160.659 143.666C160.541 143.171 160.401 142.59 160.218 141.772C159.97 140.775 159.772 139.766 159.626 138.749C159.454 137.565 159.185 136.22 159.067 134.714C159.002 133.961 158.927 133.165 158.841 132.347C158.755 131.529 158.766 130.668 158.723 129.775C158.604 128 158.723 126.096 158.723 124.105C159.067 115.409 160.931 106.841 164.231 98.7879C165.028 96.9481 165.748 95.1943 166.598 93.6234C167.007 92.8379 167.362 92.0525 167.771 91.3316L168.966 89.2765C169.686 87.9531 170.493 86.8449 171.117 85.8335C171.667 84.9697 172.263 84.1364 172.904 83.3373L174.098 81.7987C174.228 81.6125 174.375 81.4395 174.539 81.2822C174.44 81.4874 174.322 81.682 174.184 81.8632L173.108 83.4557C172.613 84.1443 172.032 84.9835 171.408 86.0056C170.784 87.0278 170.009 88.1576 169.256 89.481C168.89 90.1373 168.514 90.8259 168.105 91.536C167.696 92.2462 167.362 93.0424 166.964 93.8278C166.147 95.3987 165.447 97.1525 164.662 98.9816C161.457 107 159.621 115.5 159.228 124.127C159.228 126.106 159.088 128 159.228 129.765C159.228 130.647 159.228 131.497 159.314 132.315C159.4 133.132 159.443 133.918 159.508 134.671C159.594 136.177 159.831 137.511 159.981 138.706C160.132 139.9 160.304 140.858 160.476 141.729C160.648 142.601 160.724 143.139 160.821 143.634C160.855 143.858 160.866 144.085 160.853 144.311Z" fill="white"/>
<path d="M217.556 115.368C216.99 114.812 216.578 114.119 216.361 113.356C215.679 111.551 215.607 109.571 216.157 107.721C216.707 105.871 217.848 104.252 219.406 103.113C220.017 102.572 220.759 102.201 221.558 102.037C221.558 102.123 220.773 102.467 219.697 103.371C218.288 104.532 217.258 106.087 216.738 107.838C216.219 109.588 216.234 111.453 216.781 113.195C217.136 114.572 217.631 115.325 217.556 115.368Z" fill="white"/>
<path d="M235.394 97.4429C235.327 96.6467 235.437 95.8455 235.717 95.0973C235.829 94.3052 236.124 93.5501 236.578 92.8916C236.657 93.688 236.547 94.4918 236.255 95.2372C235.932 96.4422 235.545 97.4429 235.394 97.4429Z" fill="white"/>
<path d="M250.533 69.3395C249.937 69.2027 249.352 69.0266 248.779 68.8123C248.22 68.6078 247.542 68.3819 246.724 68.1667C245.906 67.9515 245.013 67.6395 243.98 67.4135C242.948 67.1876 241.829 66.8971 240.623 66.6926C239.418 66.4882 238.095 66.2838 236.718 66.0901C230.714 65.3642 224.635 65.5747 218.696 66.7142C217.34 66.9939 216.038 67.2414 214.844 67.5857C213.649 67.93 212.541 68.2205 211.541 68.5433C210.54 68.8661 209.647 69.1996 208.851 69.4793C208.054 69.7591 207.398 70.0281 206.849 70.254C206.295 70.513 205.724 70.7324 205.139 70.9104C205.657 70.5842 206.2 70.2999 206.763 70.0604C207.301 69.7914 207.958 69.4901 208.743 69.1889C209.529 68.8876 210.4 68.4895 211.411 68.1129C212.423 67.7363 213.563 67.392 214.725 67.037C215.887 66.6819 217.232 66.4129 218.599 66.1116C221.59 65.5229 224.623 65.1632 227.669 65.0357C230.713 64.9533 233.759 65.0972 236.782 65.4661C238.17 65.6705 239.494 65.8534 240.71 66.1331C241.925 66.4129 243.066 66.6496 244.088 66.9294C245.11 67.2091 246.025 67.4996 246.821 67.7578C247.617 68.0161 248.306 68.2635 248.855 68.4895C249.437 68.724 249.999 69.0084 250.533 69.3395V69.3395Z" fill="white"/>
<path d="M222.71 197.506C222.248 197.553 221.783 197.553 221.322 197.506C220.058 197.466 218.798 197.362 217.545 197.194C209.241 196.155 201.291 193.209 194.315 188.587C192.981 187.694 191.948 186.93 191.26 186.359C190.871 186.092 190.51 185.785 190.184 185.445C190.599 185.651 190.992 185.899 191.356 186.187C192.077 186.704 193.153 187.414 194.498 188.253C201.521 192.664 209.371 195.594 217.567 196.861C219.137 197.097 220.418 197.259 221.3 197.345C221.774 197.348 222.247 197.402 222.71 197.506V197.506Z" fill="white"/>
<path d="M304.48 145.108C304.48 145.108 304.556 144.699 304.728 143.914C304.9 143.128 305.212 141.966 305.47 140.417C306.32 135.911 306.759 131.337 306.783 126.752C306.802 123.439 306.597 120.128 306.17 116.843C305.679 112.935 304.869 109.074 303.749 105.298C301.026 96.0723 296.575 87.4481 290.633 79.8838C283.424 70.6931 274.16 63.3225 263.584 58.3648C257.722 55.6111 251.526 53.6361 245.153 52.4901C241.822 51.8776 238.454 51.4894 235.071 51.3281C231.597 51.184 228.118 51.2702 224.656 51.5863C209.892 53.0033 195.878 58.7615 184.383 68.1344C181.389 70.5734 178.59 73.2427 176.012 76.118C173.366 79.0224 170.973 82.1468 168.857 85.4572C160.077 99.0418 155.926 115.101 157.022 131.239C157.129 133.208 157.398 135.166 157.635 137.114C157.872 139.061 158.28 140.976 158.711 142.87C159.563 146.642 160.714 150.341 162.154 153.931C167.649 167.706 177.098 179.547 189.311 187.963C192.187 189.919 195.188 191.684 198.295 193.246C207.152 197.63 216.778 200.247 226.635 200.95C238.261 201.762 249.915 199.846 260.668 195.355C269.535 191.629 277.615 186.255 284.479 179.517C287.285 176.755 289.865 173.772 292.193 170.597C296.899 164.245 300.557 157.18 303.028 149.67C303.566 148.185 303.835 147.012 304.104 146.248C304.373 145.484 304.459 145.086 304.459 145.086C304.459 145.086 304.093 146.7 303.146 149.702C301.755 154.08 299.954 158.316 297.767 162.355C296.16 165.272 294.363 168.079 292.387 170.759C290.066 173.96 287.486 176.965 284.672 179.743C277.802 186.538 269.699 191.961 260.797 195.721C249.984 200.287 238.249 202.247 226.539 201.445C216.617 200.749 206.925 198.129 198.004 193.73C194.876 192.161 191.853 190.389 188.956 188.426C176.643 179.959 167.114 168.034 161.573 154.157C160.145 150.55 159.001 146.837 158.151 143.053C157.678 141.138 157.366 139.201 157.075 137.243C156.785 135.284 156.559 133.315 156.462 131.325C155.352 115.065 159.547 98.8832 168.416 85.2098C170.55 81.8782 172.962 78.7325 175.625 75.806C188.28 61.7513 205.752 52.9616 224.58 51.1775C228.064 50.8649 231.565 50.7822 235.06 50.93C244.996 51.4228 254.742 53.8419 263.756 58.0528C274.376 63.0458 283.678 70.4605 290.913 79.7009C296.87 87.3094 301.318 95.9867 304.018 105.265C305.127 109.042 305.922 112.903 306.396 116.81C306.807 120.108 307.001 123.429 306.977 126.752C306.933 131.363 306.457 135.959 305.556 140.481C304.911 143.515 304.48 145.108 304.48 145.108Z" fill="#38382A"/>
<path d="M170.419 140.083L173.13 145.032L178.079 147.744L173.13 150.455L170.419 155.405L167.707 150.455L162.758 147.744L167.707 145.032L170.419 140.083Z" fill="white"/>
<path d="M178.079 90.6108L179.456 93.1286L181.984 94.5058L179.456 95.8938L178.079 98.4115L176.701 95.8938L174.184 94.5058L176.701 93.1286L178.079 90.6108Z" fill="#F5F5F5"/>
<path d="M272.052 83.0684L274.721 87.9424L279.595 90.6108L274.721 93.2791L272.052 98.1532L269.384 93.2791L264.51 90.6108L269.384 87.9424L272.052 83.0684Z" fill="white"/>
<path d="M270.18 182.109L272.116 185.649L275.656 187.586L272.116 189.523L270.18 193.063L268.243 189.523L264.703 187.586L268.243 185.649L270.18 182.109Z" fill="#F5F5F5"/>
<path d="M305.504 144.118L306.784 146.463L309.13 147.744L306.784 149.024L305.504 151.37L304.224 149.024L301.867 147.744L304.224 146.463L305.504 144.118Z" fill="#F5F5F5"/>
<path d="M305.504 117.811L305.945 118.618L306.752 119.059L305.945 119.5L305.504 120.307L305.063 119.5L304.256 119.059L305.063 118.618L305.504 117.811Z" fill="#F5F5F5"/>
<path d="M162.756 117.811L163.197 118.618L164.004 119.059L163.197 119.5L162.756 120.307L162.315 119.5L161.508 119.059L162.315 118.618L162.756 117.811Z" fill="#F5F5F5"/>
<path d="M113.232 107.88L115.072 111.237L118.418 113.066L115.072 114.895L113.232 118.252L111.403 114.895L108.057 113.066L111.403 111.237L113.232 107.88Z" fill="white"/>
<path d="M149.264 236.155L150.502 238.425L152.772 239.662L150.502 240.9L149.264 243.17L148.016 240.9L145.746 239.662L148.016 238.425L149.264 236.155Z" fill="white"/>
<path d="M70.0115 40.1919L71.2488 42.4621L73.5191 43.6995L71.2488 44.9476L70.0115 47.2071L68.7742 44.9476L66.5039 43.6995L68.7742 42.4621L70.0115 40.1919Z" fill="white"/>
<path d="M198.683 9.41943L199.921 11.6897L202.191 12.9378L199.921 14.1751L198.683 16.4454L197.435 14.1751L195.176 12.9378L197.435 11.6897L198.683 9.41943Z" fill="white"/>
<path d="M308.171 58.0527L309.408 60.323L311.678 61.5711L309.408 62.8084L308.171 65.0787L306.923 62.8084L304.652 61.5711L306.923 60.323L308.171 58.0527Z" fill="white"/>
<path d="M161.509 36.5547L162.445 38.2762L164.167 39.2123L162.445 40.1484L161.509 41.8591L160.573 40.1484L158.852 39.2123L160.573 38.2762L161.509 36.5547Z" fill="white"/>
<path d="M253.212 250.712L254.148 252.423L255.859 253.37L254.148 254.306L253.212 256.017L252.276 254.306L250.555 253.37L252.276 252.423L253.212 250.712Z" fill="white"/>
<path d="M299.188 11.6899L300.996 14.9823L304.299 16.7899L300.996 18.5975L299.188 21.9007L297.38 18.5975L294.088 16.7899L297.38 14.9823L299.188 11.6899Z" fill="#00A572"/>
<path d="M360.755 141.987L362.563 145.29L365.855 147.087L362.563 148.895L360.755 152.198L358.948 148.895L355.645 147.087L358.948 145.29L360.755 141.987Z" fill="#00A572"/>
<path d="M59.9518 138.943L61.1677 141.17L63.4056 142.397L61.1677 143.612L59.9518 145.85L58.7253 143.612L56.498 142.397L58.7253 141.17L59.9518 138.943Z" fill="#00A572"/>
<path d="M358.258 12.6475L359.485 14.8747L361.712 16.1013L359.485 17.3171L358.258 19.5551L357.043 17.3171L354.805 16.1013L357.043 14.8747L358.258 12.6475Z" fill="#00A572"/>
<path d="M128.199 60.3877L128.823 61.539L129.974 62.163L128.823 62.7871L128.199 63.9383L127.564 62.7871L126.424 62.163L127.564 61.539L128.199 60.3877Z" fill="#00A572"/>
<path d="M379.186 135.618L379.81 136.759L380.961 137.393L379.81 138.018L379.186 139.169L378.561 138.018L377.41 137.393L378.561 136.759L379.186 135.618Z" fill="#00A572"/>
<g filter="url(#filter0_d_237_126430)">
<path d="M231 92C212.232 92 197 107.232 197 126C197 144.768 212.232 160 231 160C249.768 160 265 144.768 265 126C265 107.232 249.768 92 231 92ZM243.002 130.182L225.39 142.388C222.806 144.19 221.31 143.136 222.058 140.11L225.288 127.054L219.678 125.66C217.128 125.048 216.822 123.28 218.964 121.784L236.576 109.578C239.16 107.776 240.656 108.83 239.908 111.856L236.678 124.912L242.288 126.306C244.838 126.952 245.144 128.686 243.002 130.182Z" fill="white"/>
</g>
</g>
</g>
<defs>
<filter id="filter0_d_237_126430" x="197" y="92" width="69.076" height="69.076" filterUnits="userSpaceOnUse" color-interpolation-filters="sRGB">
<feFlood flood-opacity="0" result="BackgroundImageFix"/>
<feColorMatrix in="SourceAlpha" type="matrix" values="0 0 0 0 0 0 0 0 0 0 0 0 0 0 0 0 0 0 127 0" result="hardAlpha"/>
<feOffset dx="1.07595" dy="1.07595"/>
<feComposite in2="hardAlpha" operator="out"/>
<feColorMatrix type="matrix" values="0 0 0 0 0 0 0 0 0 0 0 0 0 0 0 0 0 0 0.2 0"/>
<feBlend mode="normal" in2="BackgroundImageFix" result="effect1_dropShadow_237_126430"/>
<feBlend mode="normal" in="SourceGraphic" in2="effect1_dropShadow_237_126430" result="shape"/>
</filter>
<clipPath id="clip0_237_126430">
<rect width="442" height="252" fill="white"/>
</clipPath>
<clipPath id="clip1_237_126430">
<rect width="473.741" height="455.955" fill="white" transform="translate(0 -93)"/>
</clipPath>
</defs>
</svg>
